<?xml version="1.0" encoding="UTF-8" standalone="no"?>
<!-- Created with Inkscape (http://www.inkscape.org/) -->

<svg
   width="50mm"
   height="75mm"
   viewBox="0 0 50 75"
   version="1.1"
   id="svg5801"
   inkscape:version="1.2.2 (b0a84865, 2022-12-01)"
   sodipodi:docname="leaf1.svg"
   xmlns:inkscape="http://www.inkscape.org/namespaces/inkscape"
   xmlns:sodipodi="http://sodipodi.sourceforge.net/DTD/sodipodi-0.dtd"
   xmlns="http://www.w3.org/2000/svg"
   xmlns:svg="http://www.w3.org/2000/svg">
  <sodipodi:namedview
     id="namedview5803"
     pagecolor="#ffffff"
     bordercolor="#000000"
     borderopacity="0.25"
     inkscape:showpageshadow="2"
     inkscape:pageopacity="0.0"
     inkscape:pagecheckerboard="0"
     inkscape:deskcolor="#d1d1d1"
     inkscape:document-units="mm"
     showgrid="false"
     inkscape:zoom="0.5946522"
     inkscape:cx="315.31036"
     inkscape:cy="295.97133"
     inkscape:window-width="1440"
     inkscape:window-height="784"
     inkscape:window-x="0"
     inkscape:window-y="30"
     inkscape:window-maximized="1"
     inkscape:current-layer="layer1" />
  <defs
     id="defs5798" />
  <g
     inkscape:label="Layer 1"
     inkscape:groupmode="layer"
     id="layer1"
     transform="translate(-0.88987591,0.88987591)">
    <path
       id="path17450"
       style="display:inline;opacity:1;fill:black;fill-opacity:1;stroke:#148e4d;stroke-width:0.160001;stroke-linecap:round;stroke-opacity:1;paint-order:stroke fill markers"
       d="M 28.431587,1.7617228 C 24.870798,1.7706462 21.830946,3.401228 19.226939,6.3867801 13.660396,5.9655586 8.3336769,7.6283704 3.6526259,14.881394 1.0383561,20.821682 2.3592496,24.30218 4.4391449,27.308611 l 8.6527411,-9.124038 c 3.259179,-3.024512 3.661954,-0.04167 2.044329,1.415944 L 6.6416052,28.72454 C 1.8825217,34.150622 0.40046281,39.287783 5.6979885,43.826526 7.2141937,39.182162 9.3280389,35.035527 12.619562,31.870615 c 3.260493,-3.000518 4.511916,0.369662 2.674784,2.045368 -10.5037211,10.657747 -8.1884247,18.339782 -2.20246,25.169633 0.495754,-4.824185 0.942686,-9.648385 3.460269,-14.47257 2.032945,-3.656492 3.777439,-0.878378 3.304205,0.943625 -1.167666,4.1143 -3.691951,8.629781 -3.932594,11.483577 -0.410667,6.064406 3.478618,7.166565 6.763443,8.966933 0.09672,-4.135511 0.456608,-8.074375 1.731168,-11.326487 1.633037,4.090055 3.438831,8.180057 5.662727,12.270112 1.624608,3.575902 3.60352,2.368493 5.820859,0.314187 2.947061,-2.022288 0.69619,-8.421579 -1.888263,-15.101986 -1.5495,-4.498444 0.362433,-2.703452 1.730138,-0.628388 1.964679,3.639281 3.676751,6.520611 5.348532,9.28112 3.793851,-6.094066 6.965872,-12.225534 -3.774463,-19.191663 -3.49733,-2.58651 -3.850689,-6.37975 2.044325,-3.146075 2.802826,1.341208 5.516057,3.763702 8.023323,8.651696 5.092416,-7.991789 4.969447,-14.86088 -9.12403,-18.720379 -7.775617,-1.68807 -3.871395,-4.852142 0.786513,-3.303172 2.81178,1.12688 5.861203,3.202973 8.966933,5.505621 2.159277,-4.491259 2.627097,-10.795984 -6.293185,-12.741395 -2.732128,-0.131401 -6.444014,-0.264624 -9.281127,-2.20245 -3.877271,-2.715793 -0.835002,-3.65166 1.10175,-2.359554 3.132614,1.98081 6.499474,3.25736 10.224745,3.460261 C 43.379848,12.263909 40.579797,7.9201499 35.743838,3.7120112 33.155951,2.4185669 30.781575,1.7887425 28.601086,1.7627588 c -0.05679,-6.73e-4 -0.112979,-0.00151 -0.169499,-7.562e-4 z m 1.617476,6.3820712 c 0.317915,-1.058e-4 0.651347,0.00983 1.000463,0.032064 2.235345,0.1917771 4.190473,1.1747255 0.778247,2.447404 -8.369299,2.679608 -9.712541,1.72495 -9.566381,0 2.343225,-1.0070642 4.03634,-2.478167 7.787671,-2.479445 z M 19.703397,8.5096754 c 1.494129,1.6823226 3.440956,6.9866076 5.339234,11.9021666 4.360274,-0.549023 8.79465,-0.949403 13.570294,-0.667666 1.734924,0.279166 5.690932,2.31369 0.223243,3.337277 -3.766651,0.789621 -8.685461,0.197245 -13.459705,-0.222222 l 2.557993,9.010363 c 7.724693,-2.682089 12.359883,-0.810886 16.129317,2.335771 3.768692,2.800233 1.73345,2.490546 -0.222208,2.224168 l -15.907109,-2.224168 1.223706,6.895748 c 2.966261,1.097546 5.932461,2.976855 8.898722,5.117023 4.623477,3.372275 0.642718,4.006417 -1.223705,1.557531 l -7.563399,-5.339245 1.557539,15.461666 -4.004943,-15.683866 -3.33728,9.120937 c -1.186385,3.990121 -2.968562,2.486493 -2.113575,-0.222223 1.582345,-4.349135 3.454917,-7.540349 5.228645,-11.123903 l -1.779744,-7.563399 c -2.636184,4.367361 -7.741249,9.008639 -12.125414,13.570279 -1.580703,1.45191 -3.0894436,2.755458 -2.001953,-1.33428 1.429979,-4.683906 3.985522,-9.286345 13.904122,-13.349123 L 22.039183,21.190082 10.693055,31.64635 C 7.7633817,34.070123 6.1939032,32.380019 8.2456484,29.088342 11.822402,25.019264 16.929085,22.26085 21.927561,19.410336 20.800932,15.9692 19.99219,12.369727 19.703397,8.5096754 Z m -1.942008,2.9982716 c 0.471234,0.0092 0.936038,0.04711 1.385968,0.116798 0.818481,1.397924 -1.039937,2.417329 -6.229104,3.670074 -7.4145273,1.210064 -4.7813473,0.333939 -3.3372786,-1.557546 1.2542896,-0.995025 4.8817756,-2.293726 8.1804146,-2.229326 z" />
  </g>
</svg>
