<?xml version="1.0" encoding="UTF-8" standalone="no"?>
<!-- Created with Inkscape (http://www.inkscape.org/) -->

<svg
   width="50mm"
   height="70mm"
   viewBox="0 0 50 70"
   version="1.1"
   id="svg1927"
   inkscape:version="1.2.2 (b0a84865, 2022-12-01)"
   sodipodi:docname="chester.svg"
   xmlns:inkscape="http://www.inkscape.org/namespaces/inkscape"
   xmlns:sodipodi="http://sodipodi.sourceforge.net/DTD/sodipodi-0.dtd"
   xmlns="http://www.w3.org/2000/svg"
   xmlns:svg="http://www.w3.org/2000/svg">
  <sodipodi:namedview
     id="namedview1929"
     pagecolor="#ffffff"
     bordercolor="#000000"
     borderopacity="0.25"
     inkscape:showpageshadow="2"
     inkscape:pageopacity="0.0"
     inkscape:pagecheckerboard="0"
     inkscape:deskcolor="#d1d1d1"
     inkscape:document-units="mm"
     showgrid="false"
     inkscape:zoom="0.84096521"
     inkscape:cx="95.128787"
     inkscape:cy="223.55265"
     inkscape:window-width="1440"
     inkscape:window-height="782"
     inkscape:window-x="0"
     inkscape:window-y="30"
     inkscape:window-maximized="1"
     inkscape:current-layer="layer1" />
  <defs
     id="defs1924" />
  <g
     inkscape:label="Layer 1"
     inkscape:groupmode="layer"
     id="layer1">
    <path
       id="path4520"
       style="fill:black;fill-opacity:1;stroke:none;stroke-width:0.629381;stroke-linecap:round;stroke-dashoffset:0.096;stroke-opacity:1;paint-order:stroke fill markers"
       d="M 24.537002,3.1308064 C 23.851867,3.2409541 23.781776,3.6449995 23.547076,3.970569 23.356353,4.2390809 23.146278,4.312439 22.939733,4.16644 22.70871,4.0351379 22.20826,3.8706924 22.313812,4.231456 22.4414,4.812779 21.696248,5.0972754 21.432701,5.4563452 c -0.794529,0.8383884 -1.533447,1.0223943 -2.277878,1.2690565 -0.473585,0.1309357 -0.09561,0.811697 -2.331712,0.9031543 -0.775136,-0.00521 -0.481973,0.3762853 -0.02429,0.3773549 0.589274,0.033294 0.796666,0.5880747 0.218018,0.7697027 l -1.803115,0.531709 C 14.597973,9.4893387 14.372364,8.7999697 14.728194,8.336626 l 0.636708,-0.1733763 -0.04582,-0.3139545 -1.019028,0.096437 c -0.64281,0.7160569 -1.659751,0.4612045 -2.364226,0.1330644 -1.072419,-0.5781943 -0.875604,0.1034639 -0.49116,0.4458808 1.1435,1.1489744 2.109473,2.0147846 0.85264,2.7599826 l -1.95246,1.141374 c 0.19431,0.76134 0.104936,1.596765 -0.7102462,1.306535 C 8.9378662,13.40296 9.1161195,12.757921 9.0468235,12.24274 8.9504128,11.588159 8.723953,11.743933 8.4978048,12.109362 c -0.5587467,0.883373 -0.4320834,1.648651 0.3870696,2.294177 0.4777888,0.312762 0.3676214,1.459492 -0.026743,1.633128 -0.6889856,0.280424 -0.4320703,0.562796 0.070126,0.84503 0.347792,0.204275 0.6549763,0.740387 -0.1595341,0.904542 C 8.0868804,17.909268 7.7591144,17.538533 7.8322624,17.176089 8.1675357,16.167359 7.6611815,16.483335 7.2915542,16.373829 6.9091614,15.658209 6.1970815,15.677422 6.3587923,16.697374 6.4939251,17.344298 6.5263005,18.061081 5.6725919,18.347868 5.1843164,18.479035 5.2471637,17.709135 5.2309918,17.317112 5.2210318,16.29348 4.9581872,16.692179 4.6407925,17.08354 c -0.6827103,0.711996 -0.5178901,1.402806 0.5724777,2.293281 0.4192403,0.539689 0.8844231,0.711041 1.385025,0.59793 0.4185112,-0.09551 0.466043,0.366897 0.3106106,0.675687 -0.3211688,0.552411 -0.9188592,0.481337 -1.4218189,0.422628 -1.3614982,-0.164493 -0.47765,-1.65437 -1.0217199,-1.559673 0.1233044,-0.214031 -0.2353072,-0.234797 -0.2076835,0.03049 0.016036,0.737286 -0.3906532,0.953411 -0.747252,1.231555 -0.4430045,-0.263185 -0.4895293,-0.02538 -0.3278659,0.475535 0.065069,0.198755 0.1461103,0.405203 -0.1206818,0.445111 -0.6282458,0.110065 -0.3907808,1.418323 0.2650171,1.456782 0.5455877,0.05127 1.2700607,0.626797 1.2801316,1.147957 -0.00848,0.529875 0.064956,1.006762 0.6938195,1.126773 0.1292728,0.555645 0.3851106,1.138065 -0.2534152,1.533369 -1.027476,0.51525 0.5779463,1.446017 0.7026205,0.457816 0.1213937,-0.449044 0.4031693,-0.627966 0.7503507,-0.484419 0.4059689,0.157354 0.912612,0.201727 0.9150096,-0.08067 0.00924,-0.922267 0.3864468,-2.165034 0.7401468,-2.192049 0.7336546,-0.09796 0.8988637,-0.491191 0.8335951,-1.003956 -0.067247,-0.596902 0.5219249,-1.402803 1.5769725,-0.445407 0.4625,0.427063 0.495115,0.122513 0.785187,-0.248771 3.87622,-4.118952 9.280271,-3.925944 15.180029,-2.334653 1.36689,0.342336 2.141628,0.200279 3.190199,-0.280779 1.93333,-1.008133 7.164245,-2.99442 12.534314,-1.225574 1.511613,0.437097 2.343977,0.194195 1.92965,-1.297865 -0.607131,0.06825 -1.173341,0.101254 -0.695863,-0.779491 0.314042,-0.461068 0.234161,-0.949606 -0.273121,-1.509196 -0.402586,-0.406437 -1.57084,0.962168 -2.596763,0.354318 -1.062613,-0.764526 -1.139936,-0.993317 -0.308799,-2.118523 L 40.153527,12.512633 C 39.454113,11.539512 37.557462,13.499713 36.540212,9.8907588 36.266906,9.6437206 36.054688,9.3610517 36.010296,8.9801974 35.243863,8.6072588 34.526749,8.1297165 33.987251,7.2736169 L 32.358203,6.8182229 C 31.961527,6.7281312 31.599079,6.7159423 31.335975,7.0749939 31.166919,7.3220216 30.944474,7.3635332 30.661833,7.1738835 29.927699,6.5514811 29.453016,5.5247895 28.484438,5.8637434 27.90097,6.0942849 27.418383,6.3500792 28.472318,6.5068763 29.154436,6.6885156 29.057586,7.9896157 27.913203,7.5772847 27.534196,7.436834 27.395445,7.0321827 27.335074,6.7005951 27.259623,6.2416087 26.282576,6.2935581 26.274097,5.6009022 26.288187,5.1243956 26.066503,4.9259627 25.740978,4.8506427 25.240084,4.7044118 25.082055,4.1339737 25.369221,3.5698617 25.651312,3.1237596 24.996267,3.0471303 24.536976,3.1310746 Z m -0.849513,5.3687294 c 0.475393,0.2822686 0.950344,0.7195139 1.428557,0.03556 0.282707,-0.3717969 0.642075,-0.3931709 1.074327,-0.081659 0.625189,0.4330599 1.438841,0.4959489 2.253634,0.5568212 2.199674,0.3896575 5.007361,1.601015 5.650862,2.665348 0.449389,0.816351 -0.01382,0.918534 -0.47383,0.730254 -1.989415,-0.955999 -3.978256,-1.926303 -6.005534,-2.140702 -0.458569,0.09805 -1.041948,0.0567 -2.209479,-0.6387562 -0.229386,-0.1176113 -0.400559,-0.094257 -0.502421,0.1491505 -0.114187,0.3772097 -0.375189,0.5553137 -0.924017,0.3431057 -0.345232,-0.1413791 -0.670119,-0.1421474 -0.950845,0.158967 -2.377732,0.104568 -3.163447,0.659597 -4.196806,1.14463 -0.619983,0.310952 -1.161447,-0.289203 -0.702929,-0.841499 1.202082,-1.1542386 3.688738,-1.7973837 5.558488,-2.0811386 z M 4.4992007,29.883515 c 0.3186942,-0.41526 0.8154753,-0.348848 1.3040147,-0.30472 0.5911875,0.03703 1.246231,0.166473 1.3503905,-0.500419 0.1380531,-0.802505 -0.3386529,-0.984694 -1.0111433,-0.512712 -0.3127271,0.226362 -0.8593502,0.296552 -1.1293074,0.08975 -0.6496309,-0.585695 -1.0135828,-0.168078 -0.9345871,0.26938 0.066579,0.210084 0.041243,0.403416 -0.1995615,0.55819 -0.53688,0.308483 0.2600844,1.057129 0.6201647,0.400094 z m -0.021326,4.253264 0.1101263,1.119145 c -0.7222814,-0.05978 -0.7585742,0.554879 -0.981973,0.985583 -0.214408,0.492498 0.2381826,0.385248 0.4869482,0.342579 0.7844171,-0.136068 1.6025016,0.225892 2.1758544,0.482053 0.6363286,0.229115 0.6599127,-0.148693 0.564792,-0.577086 C 6.6706979,35.5441 6.0296007,35.004847 5.2099854,34.617013 4.8650853,34.456238 4.8217526,34.164476 4.8252621,33.885445 4.8504168,33.224852 4.5882871,32.729466 4.1022924,32.923028 3.5994032,33.157636 3.8352773,33.825399 4.4778486,34.136781 Z M 2.0602728,32.99567 C 2.418375,32.636348 3.0258769,33.235808 2.7279681,33.578857 2.3922707,33.939281 1.66545,33.389426 2.0602728,32.99567 Z m 1.5109283,6.550023 c -0.419194,-0.282261 -0.627294,-0.1228 -0.5880313,0.326716 0.3648342,4.419213 2.0354341,6.452423 4.5169585,7.00374 1.2134377,0.13215 2.2699809,-0.20948 2.4863367,-1.112882 0.056456,-0.340296 0.172668,-0.850009 -0.2928184,-0.918708 C 9.3962024,44.788893 9.2798816,44.410942 9.1750675,44.012425 8.8714686,42.50389 7.5095861,42.290669 7.1365094,43.109525 6.7842592,43.863648 5.7272841,43.19575 5.829322,42.499997 5.9416326,41.882158 6.4076601,40.259735 6.7507277,40.28113 7.4067128,40.338445 7.3023039,39.918368 6.9513404,39.47701 6.4249952,38.778806 5.647173,37.773426 4.8441238,39.011599 4.5143127,39.420986 4.0107042,39.741274 3.5712011,39.545693 Z m 15.4643239,-18.633475 -4.57329,3.315685 c -0.704051,0.665695 -0.983124,0.415878 -1.064558,-0.108206 -0.34269,-2.678443 2.868698,-2.782799 5.637848,-3.207479 z M 44.87122,19.62009 44.596713,18.645283 45.837571,18.436461 c 0.123574,0.588274 -0.111372,1.020662 -0.96635,1.183638 z m -6.999761,0.49308 c 1.321502,-0.182002 1.771741,0.45944 1.667104,1.625238 -0.931424,-0.07654 -1.453311,-0.660159 -1.667104,-1.625238 z m 6.702084,4.732956 c 0.0025,0.550682 -0.110587,1.15772 0.317209,1.449383 0.958428,0.700167 1.435574,-0.447792 1.824325,-0.748591 1.060759,-0.704085 0.56491,-0.874446 -0.166927,-0.963886 -0.910287,-0.20235 -1.959771,-0.564875 -1.974561,0.263119 z M 31.051968,39.559464 c 1.077298,-0.428898 1.187283,0.878989 0.553254,1.16096 -0.592484,0.290907 -1.745846,-0.624248 -0.553254,-1.16096 z M 27.982695,22.725109 c -0.838003,0.184374 -0.987461,2.224372 -1.403652,3.319481 -0.909992,2.078981 -1.735269,3.15733 -2.95001,3.745488 -1.602485,0.674045 -3.734012,1.498148 -4.575922,1.312454 -0.618451,-0.189562 -1.214099,-0.565404 -1.942164,0.124724 -0.460265,0.393588 -2.732315,0.606135 -4.009783,0.107981 -0.848831,-0.418807 -1.449175,-0.190315 -1.89593,0.438597 l -1.2859692,0.989941 0.2879622,1.614242 c 1.122495,-0.107324 0.985779,0.545872 1.057158,1.073455 0.118262,0.647325 0.586114,1.049088 1.058513,1.447545 0.452517,0.528537 0.680593,1.061465 0.339933,1.606118 -0.185143,0.614863 -0.345421,1.226252 0.04442,1.756718 l 0.336775,0.858503 c 0.320018,0.797578 1.801809,2.406902 1.764926,3.747962 0.895147,-0.158019 2.632579,-0.188875 2.643207,-0.761727 0.07307,-0.74835 0.411042,-0.749675 0.820821,-0.547869 0.485153,0.309457 0.85343,0.193085 1.125835,-0.271969 0.537219,-0.676835 3.944024,-0.187306 3.608862,1.500642 -0.07057,0.443656 -0.196395,0.912267 0.367301,1.067978 0.34333,0.242483 0.539123,0.644408 1.284561,0.452326 0.605471,0.156383 1.191294,0.180054 1.711114,-0.251133 l 1.852021,-0.37855 0.883117,0.244185 0.956265,0.01999 0.280823,-0.254675 1.332961,-0.302863 c 0.3756,0.353338 0.835467,0.229379 1.319607,-0.03329 0.590927,-0.427928 1.227253,-0.543969 1.918798,-0.281618 l 1.712977,0.122886 c 0.946083,0.199802 1.447552,-0.203858 1.522258,-1.18546 -0.651458,-1.765393 1.851572,-2.98686 2.968421,-1.07653 l 1.230735,0.08643 c -0.454696,-0.36009 -0.612011,-1.297958 0.33101,-0.636317 l 0.842411,-0.764509 c -0.507949,-2.008592 -0.219452,-4.253955 -0.09278,-6.451094 -0.0065,-0.709583 0.260577,-0.982389 0.774586,-0.861761 0.358012,0.589605 2.272187,0.24881 2.01345,-0.722924 -0.22992,-0.984054 -1.624864,-0.326447 -2.043916,0.513941 -0.779025,-0.262392 -0.896814,-0.790255 -0.687613,-1.448867 0.318512,-0.649034 1.021395,-0.884262 1.798186,-0.744443 0.482878,0.106186 0.85154,0.04725 1.081377,-0.212312 l -0.01341,-1.547314 -0.370978,8.31e-4 c -0.358051,0.450839 -0.811272,0.248736 -1.298013,-0.183285 -0.45264,-0.288067 -0.324081,0.286083 0.137257,0.941399 0.253434,0.441181 -0.53766,0.674268 -1.183678,0.601126 -0.430107,-0.01328 -0.856866,-2.15736 -2.185661,-1.549183 -1.054607,0.433792 -4.639002,0.150353 -6.851667,-0.490071 -1.09817,-0.339099 -0.841532,0.175381 -0.813172,0.600373 -0.02691,1.750215 -0.06009,3.491223 -1.693263,2.919671 -0.568013,-0.21547 -0.948457,-0.160041 -1.073795,0.264334 l -0.474089,0.01602 -0.178455,-0.133658 -1.371149,0.04093 -0.134623,-0.194196 -0.362846,0.05326 0.02317,0.156946 c -1.18874,0.27532 -2.225573,0.498979 -2.922611,-0.425855 -0.868722,-1.276779 -0.202382,-1.85007 0.383102,-2.460327 l 0.538211,-0.666742 c 0.78718,-0.777508 1.951516,-0.895001 2.59922,-0.702159 1.129665,0.376129 2.078401,0.273371 2.883196,-0.209183 0.879961,-0.54353 0.810941,-0.848976 0.224253,-1.368745 -0.981334,-0.875789 -1.688072,-1.759317 -2.057837,-2.850158 -0.63161,-1.725926 -1.322585,-1.675724 -2.008433,-1.788651 -0.06222,-0.0049 -0.121173,-0.0012 -0.177075,0.01063 z m 1.809075,12.559665 c 0.238771,-0.03034 0.477671,-0.0087 0.717003,0.09382 0.546932,0.205856 0.967443,0.30927 1.449828,0.134197 0.992798,-0.36603 2.846377,0.872008 4.742284,2.189106 0.581296,0.432074 0.333778,1.894597 -0.847519,1.273081 -1.579157,-0.897555 -3.200572,-2.142766 -4.610196,-1.647559 -0.306433,0.09033 -0.402454,-0.01 -0.63781,-0.01314 -2.209425,0.05132 -4.348808,1.295418 -5.698536,2.332538 -0.744356,0.667087 -2.006679,-0.02184 -0.397828,-1.277441 1.195227,-0.92052 2.604566,-1.845351 4.36241,-2.777301 0.306594,-0.144905 0.613329,-0.268594 0.920363,-0.307324 z m 0.440547,3.12376 c 1.076061,-0.155087 2.337868,-0.0354 3.454842,0.697229 1.710294,1.203801 -0.508702,2.660618 -2.561885,2.953836 -1.882687,0.25359 -5.188385,-0.359147 -3.296767,-2.628108 0.323624,-0.381075 1.258352,-0.857813 2.40381,-1.022957 z m 16.554599,1.494216 c 0.380431,-0.97623 0.939345,-0.26368 0.658458,0.148916 L 47.1563,40.509653 c 0.399724,1.126642 0.4984,2.614132 -0.545388,3.838958 -1.435064,1.25996 -1.630839,0.305827 -1.655054,-0.30487 0.415602,-0.710823 0.312048,-1.474421 0.350085,-2.223612 0.604922,-0.413022 1.067892,-0.821186 1.226944,-1.218971 z m -4.715012,12.517129 c -0.159855,0.03024 -0.328841,0.297077 -0.465441,0.402894 l -0.952956,1.822678 c 0.02422,0.3081 0.05831,0.855447 -0.359003,0.98792 -0.578197,0.01745 -0.671695,0.535128 -0.588277,1.235033 l -0.718596,0.158585 -0.747871,1.044988 0.01075,0.799628 -0.743244,0.536484 -0.01147,0.829698 c -1.161427,0.388687 -1.181957,0.945113 -0.635321,1.455883 l 0.736916,0.693045 0.131537,0.541624 c 0.465723,0.229084 1.076807,0.335751 0.761174,1.224125 -0.348638,0.697051 0.118153,0.930182 0.75035,0.424007 0.09238,-0.582702 0.471766,-0.949621 0.958782,-1.235796 0.161663,-0.49566 1.005532,-0.850987 1.068647,-1.572596 0.101553,-1.220712 0.803958,-2.453799 1.449225,-3.685562 0.693717,-1.346512 0.162476,-3.735127 -0.343749,-5.265566 -0.08724,-0.328188 -0.192133,-0.417833 -0.301502,-0.397058 z m -0.33001,4.603968 c 0.641617,-0.09892 0.668553,0.817819 0.107416,0.918964 -0.546045,0.07533 -0.762203,-0.805063 -0.107416,-0.918964 z m -5.331908,2.304989 0.192127,0.773189 -1.529902,0.224575 c 0.328837,-0.501798 0.659396,-1.001132 1.337761,-0.997735 z m -6.57575,0.858247 c -0.775022,0.34976 -0.407541,1.462104 0.434682,1.165012 0.819137,-0.262691 0.556896,-1.542051 -0.434682,-1.165012 z M 12.717217,53.77712 c -0.511662,2.823208 -0.493682,5.646589 2.347102,8.470845 0.542344,0.252327 0.638718,0.752431 0.664988,1.291491 l 1.511529,1.648083 c 0.320918,0.379558 0.861663,0.461364 1.536004,0.362255 -0.11488,-0.494447 -0.03268,-0.923299 0.736784,-1.123236 0.263725,-0.602913 -0.200688,-2.463863 -0.176795,-3.39333 0.04342,-0.824705 -0.07721,-1.588619 -1.290338,-1.947679 -0.859579,-0.18405 -1.078052,-0.818612 -1.177487,-1.536832 -0.03609,-0.404266 -0.237678,-0.67746 -0.671111,-0.970025 l -0.143322,-0.62008 C 15.353567,55.808451 14.875591,54.853 14.349338,54.071832 14.035536,54.082372 13.641876,54.298406 13.518047,53.81986 13.135305,53.011099 12.833,53.299272 12.717259,53.7771 Z" />
  </g>
</svg>
