<?xml version="1.0" encoding="UTF-8" standalone="no"?>
<!-- Created with Inkscape (http://www.inkscape.org/) -->

<svg
   width="12in"
   height="12in"
   viewBox="0 0 304.8 304.8"
   version="1.1"
   id="svg5"
   xml:space="preserve"
   inkscape:version="1.2.2 (b0a84865, 2022-12-01)"
   sodipodi:docname="coffeeghost.svg"
   xmlns:inkscape="http://www.inkscape.org/namespaces/inkscape"
   xmlns:sodipodi="http://sodipodi.sourceforge.net/DTD/sodipodi-0.dtd"
   xmlns="http://www.w3.org/2000/svg"
   xmlns:svg="http://www.w3.org/2000/svg"><sodipodi:namedview
     id="namedview7"
     pagecolor="#ffffff"
     bordercolor="#000000"
     borderopacity="0.25"
     inkscape:showpageshadow="2"
     inkscape:pageopacity="0.0"
     inkscape:pagecheckerboard="0"
     inkscape:deskcolor="#d1d1d1"
     inkscape:document-units="in"
     showgrid="true"
     inkscape:zoom="0.5"
     inkscape:cx="553"
     inkscape:cy="557"
     inkscape:window-width="1440"
     inkscape:window-height="785"
     inkscape:window-x="0"
     inkscape:window-y="25"
     inkscape:window-maximized="0"
     inkscape:current-layer="layer2"><inkscape:grid
       type="xygrid"
       id="grid182"
       units="in"
       spacingx="3.175"
       spacingy="3.175"
       color="#00e536"
       opacity="0.14901961"
       empcolor="#8e00e5"
       empopacity="0.30196078"
       empspacing="8" /></sodipodi:namedview><defs
     id="defs2" /><g
     inkscape:label="Layer 1"
     inkscape:groupmode="layer"
     id="layer1" /><g
     inkscape:groupmode="layer"
     id="layer2"
     inkscape:label="Ghost"><path
       id="path2500"
       style="font-size:8.21786px;font-family:Cakecafe;-inkscape-font-specification:'Cakecafe, Normal';fill:#1429a8;stroke-width:0.252853;stroke-linecap:round;paint-order:stroke fill markers"
       d="m 53.529377,70.924611 q -0.21408,0 -0.3675,-0.0999 -0.14986,-0.0999 -0.2462,-0.26046 -0.0963,-0.16413 -0.14272,-0.37464 -0.0464,-0.21052 -0.0464,-0.43173 0,-0.23192 0.0357,-0.46741 0.0393,-0.23549 0.10704,-0.46385 0.0678,-0.22835 0.15699,-0.446 0.0892,-0.22122 0.19267,-0.42102 -0.0535,0.0178 -0.11061,0.0428 -0.0535,0.0214 -0.1106,0.0214 -0.0892,0 -0.16056,-0.0678 -0.0678,-0.0714 -0.0678,-0.18554 0,-0.0785 0.0607,-0.14986 0.0607,-0.0749 0.14629,-0.13558 0.0856,-0.0607 0.17483,-0.11061 0.0892,-0.0499 0.14629,-0.0785 0.27474,-0.14273 0.56731,-0.21052 0.29258,-0.0678 0.59586,-0.0785 l 0.14986,-0.007 q 0.0714,0 0.18197,0.003 0.11061,0.003 0.23192,0.0178 0.12131,0.0143 0.24263,0.0464 0.12131,0.0286 0.21765,0.0856 0.0999,0.0571 0.16056,0.14272 0.0607,0.0856 0.0607,0.20694 0,0.0963 -0.0464,0.15343 -0.0464,0.0571 -0.12845,0.0571 -0.0749,0 -0.11775,-0.0642 -0.0428,-0.0535 -0.1106,-0.0785 -0.0642,-0.025 -0.13916,-0.0285 -0.0714,-0.007 -0.14628,-0.003 -0.0714,0.003 -0.12845,0.003 -0.2462,0 -0.48168,0.0357 -0.23549,0.0357 -0.47812,0.0821 l 0.007,0.0642 q 0,0.12488 -0.0428,0.22835 -0.0428,0.0999 -0.0856,0.20338 -0.0856,0.21051 -0.16413,0.42816 -0.0785,0.21765 -0.13559,0.44601 -0.0571,0.22478 -0.0928,0.4567 -0.0321,0.23192 -0.0321,0.46384 0,0.17127 0.0571,0.2462 0.0607,0.0749 0.19624,0.0749 0.11774,0 0.25689,-0.0357 0.14272,-0.0357 0.28901,-0.0892 0.14629,-0.0571 0.28544,-0.12132 0.13916,-0.0642 0.25333,-0.11774 0.11418,-0.0571 0.19624,-0.0928 0.0821,-0.0357 0.11061,-0.0357 0.0678,0 0.11775,0.0642 0.0535,0.0642 0.0535,0.14985 0,0.0928 -0.10348,0.19624 -0.10347,0.10348 -0.26403,0.20695 -0.15699,0.10347 -0.35323,0.19981 -0.19624,0.0963 -0.38178,0.17126 -0.18554,0.0714 -0.33896,0.11418 -0.15343,0.0428 -0.22836,0.0428 z m 1.28449,-2.29067 q 0.0428,0 0.0892,0.007 0.05,0.007 0.0892,0.0321 0.0393,0.0214 0.0642,0.0607 0.025,0.0393 0.025,0.10348 0,0.0821 -0.0392,0.14272 -0.0393,0.0571 -0.1106,0.0749 -0.0749,0.0214 -0.21765,0.05 -0.14272,0.0285 -0.29972,0.0535 -0.15699,0.0214 -0.30328,0.0393 -0.14629,0.0143 -0.22478,0.0143 -0.05,0 -0.0963,-0.0107 -0.0464,-0.0107 -0.0821,-0.0357 -0.0357,-0.025 -0.0607,-0.0678 -0.0214,-0.0464 -0.0214,-0.11061 0,-0.0714 0.0321,-0.11418 0.0321,-0.0464 0.0856,-0.0856 0.0642,-0.0428 0.20694,-0.0714 0.14629,-0.0321 0.31042,-0.0464 0.16413,-0.0178 0.31755,-0.025 0.15343,-0.0107 0.23549,-0.0107 z m -4.26735,2.29067 q -0.21408,0 -0.3675,-0.0999 -0.14986,-0.0999 -0.2462,-0.26046 -0.0963,-0.16413 -0.14272,-0.37464 -0.0464,-0.21052 -0.0464,-0.43173 0,-0.23192 0.0357,-0.46741 0.0392,-0.23549 0.10704,-0.46385 0.0678,-0.22835 0.15699,-0.446 0.0892,-0.22122 0.19267,-0.42102 -0.0535,0.0178 -0.11061,0.0428 -0.0535,0.0214 -0.1106,0.0214 -0.0892,0 -0.16056,-0.0678 -0.0678,-0.0714 -0.0678,-0.18554 0,-0.0785 0.0607,-0.14986 0.0607,-0.0749 0.14629,-0.13558 0.0856,-0.0607 0.17483,-0.11061 0.0892,-0.0499 0.14629,-0.0785 0.27474,-0.14273 0.56732,-0.21052 0.29257,-0.0678 0.59585,-0.0785 l 0.14986,-0.007 q 0.0714,0 0.18197,0.003 0.11061,0.003 0.23192,0.0178 0.12131,0.0143 0.24263,0.0464 0.12131,0.0286 0.21765,0.0856 0.0999,0.0571 0.16056,0.14272 0.0607,0.0856 0.0607,0.20694 0,0.0963 -0.0464,0.15343 -0.0464,0.0571 -0.12845,0.0571 -0.0749,0 -0.11774,-0.0642 -0.0428,-0.0535 -0.11061,-0.0785 -0.0642,-0.025 -0.13916,-0.0285 -0.0714,-0.007 -0.14628,-0.003 -0.0714,0.003 -0.12845,0.003 -0.2462,0 -0.48169,0.0357 -0.23548,0.0357 -0.47811,0.0821 l 0.007,0.0642 q 0,0.12488 -0.0428,0.22835 -0.0428,0.0999 -0.0856,0.20338 -0.0856,0.21051 -0.16413,0.42816 -0.0785,0.21765 -0.13559,0.44601 -0.0571,0.22478 -0.0928,0.4567 -0.0321,0.23192 -0.0321,0.46384 0,0.17127 0.0571,0.2462 0.0607,0.0749 0.19625,0.0749 0.11774,0 0.25689,-0.0357 0.14273,-0.0357 0.28901,-0.0892 0.14629,-0.0571 0.28545,-0.12132 0.13915,-0.0642 0.25333,-0.11774 0.11417,-0.0571 0.19624,-0.0928 0.0821,-0.0357 0.1106,-0.0357 0.0678,0 0.11775,0.0642 0.0535,0.0642 0.0535,0.14985 0,0.0928 -0.10347,0.19624 -0.10348,0.10348 -0.26404,0.20695 -0.15699,0.10347 -0.35323,0.19981 -0.19624,0.0963 -0.38178,0.17126 -0.18554,0.0714 -0.33896,0.11418 -0.15342,0.0428 -0.22836,0.0428 z m 1.28449,-2.29067 q 0.0428,0 0.0892,0.007 0.0499,0.007 0.0892,0.0321 0.0393,0.0214 0.0642,0.0607 0.025,0.0393 0.025,0.10348 0,0.0821 -0.0393,0.14272 -0.0393,0.0571 -0.1106,0.0749 -0.0749,0.0214 -0.21765,0.05 -0.14272,0.0285 -0.29972,0.0535 -0.15699,0.0214 -0.30328,0.0393 -0.14629,0.0143 -0.22478,0.0143 -0.0499,0 -0.0963,-0.0107 -0.0464,-0.0107 -0.0821,-0.0357 -0.0357,-0.025 -0.0606,-0.0678 -0.0214,-0.0464 -0.0214,-0.11061 0,-0.0714 0.0321,-0.11418 0.0321,-0.0464 0.0856,-0.0856 0.0642,-0.0428 0.20694,-0.0714 0.14629,-0.0321 0.31042,-0.0464 0.16413,-0.0178 0.31755,-0.025 0.15343,-0.0107 0.23549,-0.0107 z m -3.7036,-1.01689 q -0.0357,0.1677 -0.0892,0.39249 -0.0499,0.22122 -0.10704,0.47454 -0.0535,0.24976 -0.11061,0.5138 -0.0535,0.26046 -0.0963,0.50666 -0.0428,0.24262 -0.0714,0.45314 -0.025,0.21051 -0.025,0.3568 0,0.0892 0.0178,0.17126 0.0214,0.0821 0.0214,0.16413 0,0.10347 -0.0678,0.17483 -0.0678,0.0678 -0.157,0.0678 -0.0856,0 -0.14985,-0.0642 -0.0607,-0.0678 -0.0999,-0.16056 -0.0357,-0.0928 -0.0535,-0.19624 -0.0178,-0.10347 -0.0178,-0.17483 0,-0.62441 0.0535,-1.2167 0.0535,-0.59586 0.21408,-1.19529 -0.0785,0.05 -0.14986,0.0963 -0.0714,0.0464 -0.16056,0.0464 -0.0535,0 -0.10347,-0.025 -0.0464,-0.025 -0.0856,-0.0678 -0.0357,-0.0428 -0.0571,-0.0963 -0.0214,-0.0571 -0.0214,-0.12131 0,-0.15699 0.0928,-0.2783 0.0963,-0.12132 0.2462,-0.20695 0.14985,-0.0892 0.33539,-0.14629 0.1891,-0.0571 0.37108,-0.0892 0.18553,-0.0357 0.34609,-0.05 0.16056,-0.0143 0.26047,-0.0143 0.0785,0 0.20694,0.003 0.12845,0 0.27117,0.0143 0.14272,0.0143 0.28544,0.0464 0.14629,0.0285 0.26404,0.0856 0.11774,0.0571 0.1891,0.14629 0.0749,0.0892 0.0749,0.22122 0,0.0856 -0.0642,0.14985 -0.0642,0.0607 -0.13559,0.0607 -0.025,0 -0.0607,-0.0214 -0.0321,-0.025 -0.0892,-0.0535 -0.0535,-0.0285 -0.13916,-0.05 -0.0821,-0.025 -0.20338,-0.025 -0.23549,0 -0.46741,0.0285 -0.23192,0.0285 -0.46741,0.0785 z m 0.43173,0.87774 q 0.0928,0 0.22836,0.003 0.13558,0.003 0.26046,0.0392 0.12845,0.0321 0.21765,0.10704 0.0928,0.0749 0.0928,0.21408 0,0.11418 -0.0821,0.19624 -0.0821,0.0821 -0.20337,0.0821 -0.0963,0 -0.18911,-0.0179 -0.0892,-0.0214 -0.18197,-0.0428 -0.0892,-0.025 -0.18197,-0.0428 -0.0892,-0.0214 -0.18553,-0.0214 -0.0571,0 -0.12489,0.007 -0.0642,0.003 -0.12131,-0.007 -0.0571,-0.0143 -0.0963,-0.0571 -0.0357,-0.0428 -0.0357,-0.13916 0,-0.0963 0.0678,-0.15699 0.0713,-0.0607 0.16769,-0.0963 0.0999,-0.0392 0.19981,-0.0535 0.10347,-0.0143 0.1677,-0.0143 z m -3.4574,-0.87774 q -0.0357,0.1677 -0.0892,0.39249 -0.0499,0.22122 -0.10704,0.47454 -0.0535,0.24976 -0.11061,0.5138 -0.0535,0.26046 -0.0963,0.50666 -0.0428,0.24262 -0.0714,0.45314 -0.025,0.21051 -0.025,0.3568 0,0.0892 0.0178,0.17126 0.0214,0.0821 0.0214,0.16413 0,0.10347 -0.0678,0.17483 -0.0678,0.0678 -0.15699,0.0678 -0.0856,0 -0.14985,-0.0642 -0.0607,-0.0678 -0.0999,-0.16056 -0.0357,-0.0928 -0.0535,-0.19624 -0.0178,-0.10347 -0.0178,-0.17483 0,-0.62441 0.0535,-1.2167 0.0535,-0.59586 0.21408,-1.19529 -0.0785,0.05 -0.14986,0.0963 -0.0714,0.0464 -0.16056,0.0464 -0.0535,0 -0.10347,-0.025 -0.0464,-0.025 -0.0856,-0.0678 -0.0357,-0.0428 -0.0571,-0.0963 -0.0214,-0.0571 -0.0214,-0.12131 0,-0.15699 0.0928,-0.2783 0.0963,-0.12132 0.24619,-0.20695 0.14986,-0.0892 0.33539,-0.14629 0.18911,-0.0571 0.37108,-0.0892 0.18554,-0.0357 0.34609,-0.05 0.16057,-0.0143 0.26047,-0.0143 0.0785,0 0.20695,0.003 0.12844,0 0.27117,0.0143 0.14271,0.0143 0.28544,0.0464 0.14629,0.0285 0.26403,0.0856 0.11775,0.0571 0.18911,0.14629 0.0749,0.0892 0.0749,0.22122 0,0.0856 -0.0642,0.14985 -0.0642,0.0607 -0.13559,0.0607 -0.025,0 -0.0607,-0.0214 -0.0321,-0.025 -0.0892,-0.0535 -0.0535,-0.0285 -0.13916,-0.05 -0.0821,-0.025 -0.20337,-0.025 -0.23549,0 -0.46741,0.0285 -0.23192,0.0285 -0.46741,0.0785 z m 0.43173,0.87774 q 0.0928,0 0.22835,0.003 0.13559,0.003 0.26047,0.0392 0.12845,0.0321 0.21764,0.10704 0.0928,0.0749 0.0928,0.21408 0,0.11418 -0.0821,0.19624 -0.0821,0.0821 -0.20338,0.0821 -0.0963,0 -0.1891,-0.0179 -0.0892,-0.0214 -0.18197,-0.0428 -0.0892,-0.025 -0.18197,-0.0428 -0.0892,-0.0214 -0.18554,-0.0214 -0.0571,0 -0.12488,0.007 -0.0642,0.003 -0.12131,-0.007 -0.0571,-0.0143 -0.0963,-0.0571 -0.0357,-0.0428 -0.0357,-0.13916 0,-0.0963 0.0678,-0.15699 0.0714,-0.0607 0.16769,-0.0963 0.0999,-0.0392 0.19981,-0.0535 0.10348,-0.0143 0.1677,-0.0143 z m -4.84893,-0.41746 q 0.12131,-0.17127 0.27117,-0.32112 0.14985,-0.14986 0.31755,-0.2569 0.17126,-0.11061 0.35323,-0.17126 0.18554,-0.0642 0.37465,-0.0642 0.0749,0 0.16412,0.0214 0.0928,0.0178 0.17127,0.0607 0.0785,0.0428 0.13202,0.10703 0.0535,0.0642 0.0535,0.15343 0,0.0749 -0.0499,0.11775 -0.0464,0.0392 -0.11775,0.0464 -0.28187,0.025 -0.5245,0.15699 -0.24262,0.12845 -0.42459,0.32469 -0.18197,0.19624 -0.29258,0.43887 -0.10704,0.24262 -0.11775,0.49238 -0.0143,0.2676 0.05,0.47098 0.0678,0.19981 0.18911,0.33183 0.12488,0.13201 0.29258,0.19267 0.16769,0.0607 0.35323,0.0464 0.18911,-0.0143 0.38178,-0.10705 0.19267,-0.0928 0.37107,-0.26403 0.0714,-0.0678 0.13202,-0.15699 0.0642,-0.0892 0.11061,-0.18197 0.0464,-0.0963 0.0714,-0.1891 0.0286,-0.0963 0.0286,-0.1784 0,-0.14273 -0.0821,-0.22836 -0.0785,-0.0856 -0.19624,-0.13558 -0.11775,-0.05 -0.26046,-0.0785 -0.13916,-0.0285 -0.2569,-0.0642 -0.11775,-0.0393 -0.19981,-0.0928 -0.0785,-0.0571 -0.0785,-0.16056 0,-0.10348 0.0607,-0.1677 0.0642,-0.0678 0.15342,-0.10347 0.0928,-0.0357 0.19268,-0.0464 0.10347,-0.0143 0.18553,-0.0143 0.23906,0 0.43887,0.0678 0.19981,0.0678 0.33896,0.19981 0.14272,0.12845 0.22122,0.32112 0.0785,0.19267 0.0785,0.43887 0,0.21764 -0.0821,0.43173 -0.0821,0.21051 -0.22122,0.40318 -0.13915,0.18911 -0.32469,0.35324 -0.18553,0.16413 -0.39605,0.28187 -0.21051,0.11775 -0.43173,0.18554 -0.22122,0.0678 -0.42816,0.0678 -0.3675,0 -0.63154,-0.13558 -0.26046,-0.13559 -0.42816,-0.3568 -0.16413,-0.22479 -0.23906,-0.5138 -0.0749,-0.28901 -0.0642,-0.59229 0.0107,-0.30328 0.0999,-0.59586 0.0928,-0.29615 0.26047,-0.5352 z m -1.49144,-1.08825 q 0.11061,0 0.2462,0.0321 0.13558,0.0321 0.24976,0.0999 0.11775,0.0642 0.19624,0.16769 0.0785,0.0999 0.0785,0.23549 0,0.0535 -0.0178,0.11061 -0.0178,0.0571 -0.05,0.10347 -0.0321,0.0464 -0.0785,0.0749 -0.0464,0.0285 -0.10347,0.0285 -0.0571,0 -0.0856,-0.025 -0.025,-0.025 -0.0428,-0.0607 -0.0143,-0.0357 -0.0321,-0.0785 -0.0143,-0.0428 -0.0499,-0.0785 -0.0321,-0.0357 -0.0999,-0.0607 -0.0642,-0.025 -0.1784,-0.025 -0.23192,0 -0.446,0.1213 -0.21408,0.12132 -0.39248,0.31756 -0.17841,0.19624 -0.31399,0.44957 -0.13202,0.24976 -0.20338,0.51379 -0.0678,0.26404 -0.0678,0.51737 0.003,0.24976 0.0928,0.446 0.0928,0.19624 0.28187,0.31756 0.19268,0.12131 0.49952,0.12131 0.21409,0 0.37108,-0.0749 0.15699,-0.0785 0.28187,-0.17127 0.12488,-0.0928 0.23192,-0.16769 0.10704,-0.0785 0.21765,-0.0785 0.0999,0 0.17484,0.0749 0.0749,0.0749 0.0749,0.1784 0,0.12131 -0.0678,0.23192 -0.0678,0.10704 -0.1784,0.19981 -0.11061,0.0928 -0.24976,0.1677 -0.13916,0.0749 -0.28187,0.12845 -0.14272,0.0499 -0.27831,0.0785 -0.13202,0.0285 -0.23192,0.0285 -0.38178,0 -0.66009,-0.11062 -0.2783,-0.1106 -0.46741,-0.29614 -0.18553,-0.18911 -0.28544,-0.43887 -0.0999,-0.25332 -0.12131,-0.5352 -0.0178,-0.28187 0.0321,-0.58159 0.0535,-0.29971 0.17126,-0.58158 0.11775,-0.28188 0.29258,-0.53164 0.1784,-0.25333 0.40675,-0.43887 0.22836,-0.1891 0.49953,-0.29971 0.27474,-0.11061 0.58515,-0.11061 z m 5.2185,-57.4269004 c -5.13966,-0.0449 -10.37567,1.3437004 -15.21709,4.0922504 -8.87095,5.46968 -12.22079,13.81497 -13.78517,23.09016 -0.94498,6.4284 -1.00112,20.00884 -1.68388,25.28718 -0.25881,4.06441 -3.44891,18.15482 -4.6917598,20.43365 -0.78857,2.00941 1.2507598,4.07194 3.1590998,2.8719 1.41681,-0.93916 2.83362,0.2907 4.25043,1.43596 2.54799,1.88921 6.24044,2.47457 8.96036,0.40207 7.04616,-5.42641 14.66684,-4.34184 22.63066,0.63182 1.51844,0.92617 3.15642,1.43781 4.88225,-0.0574 5.21937,-3.8808 10.25026,-3.52009 15.16368,-0.51694 1.93645,0.74964 4.66743,-0.0971 3.38886,-3.38886 -3.44667,-10.09159 -2.12751,-19.03061 -1.66571,-26.93852 0.68498,-9.21717 1.46574,-19.16098 -0.28719,-25.73232 -2.04382,-6.70879 -4.73073,-13.19711 -12.06203,-18.09304 -4.04747,-2.32243 -8.50751,-3.4782104 -13.04251,-3.5178704 z m 0.59345,1.5465704 c 7.04578,0.0581 12.6693,2.69002 16.88931,7.86141 4.41361,5.28638 6.60201,11.64085 7.18875,18.76412 0.39721,6.56287 -0.0658,13.00302 -0.73099,19.41412 -0.57155,7.14436 -1.04163,14.25166 0.0406,20.79465 0.3746,2.08602 0.99347,4.21147 1.62443,6.13288 0.53349,1.63913 0.003,2.66224 -1.5432,1.74648 -6.7476,-4.10348 -12.67508,-2.26646 -16.0836,0.36549 -1.81043,1.34059 -2.54581,0.92224 -4.10212,0.0406 -10.26932,-6.25225 -17.91805,-4.20827 -23.88151,-0.28428 -2.00976,1.28173 -4.23675,1.87153 -6.57959,-0.0812 -1.92453,-1.5675 -3.86521,-3.03429 -6.2141,-1.94953 -1.51031,0.75897 -1.57157,-0.19887 -1.25915,-1.1371 1.22746,-3.69657 2.30791,-7.41397 3.16807,-11.04743 1.46589,-5.62301 1.98421,-11.36444 2.23381,-17.13948 0.29844,-7.52494 0.3607,-15.31557 1.8277,-21.52587 1.21977,-5.19723 3.30814,-10.23652 7.87914,-14.82444 4.12011,-3.74296 9.25655,-6.90011 18.11435,-7.10753 0.48237,-0.019 0.95838,-0.0268 1.4281,-0.0229 z m 6.39363,13.98245 c -5.29067,-0.0228 -4.93451,14.23323 -0.16246,14.21524 5.08315,0.0116 5.18633,-14.16701 0.16246,-14.21524 z m -13.6703,-0.0287 c -5.29066,-0.0228 -4.93451,14.23322 -0.16246,14.21524 5.08316,0.0116 5.18634,-14.16701 0.16246,-14.21524 z m -0.16246,28.10555 c -0.004,2.79114 18.19695,2.13822 18.1955,-0.48738 -0.0179,-2.50489 -18.1928,-2.21331 -18.1955,0.48738 z m 10.64064,-5.3953 c -10.0697,0.17009 -14.31573,3.06291 -14.01492,7.00746 -3.97324,-0.36883 -7.50405,1.17958 -11.02814,2.75703 -1.38798,0.64016 -0.58875,2.05761 0.34463,1.60828 4.65355,-2.18487 9.61239,-4.41548 13.78517,-1.4934 2.18942,1.68368 3.26493,4.33178 -1.26364,6.77771 -4.20199,2.05763 -7.08865,2.79993 -10.10913,3.67605 -0.86405,0.25544 -0.90787,1.71413 0.45951,1.37852 2.3276,-0.62631 4.64617,-1.22553 7.12234,-2.29753 -0.57861,7.48511 4.33025,10.9026 13.09591,11.14301 9.2452,0.37007 13.02063,-5.29496 12.1769,-9.30499 -1.43956,-5.50186 -0.51922,-8.37936 -0.11487,-13.44054 0.5809,-6.39832 -4.19455,-7.79739 -10.45376,-7.8116 z m 0.23177,1.21675 c 2.53678,-0.027 5.2532,0.25183 7.06288,1.31053 3.73618,2.51648 1.54147,8.04499 1.26364,10.79839 -0.14554,2.38817 0.157,5.67426 0.7467,8.21366 0.69681,2.93096 -1.75052,6.25867 -5.112,7.12234 -7.79791,1.69217 -12.24047,-0.0153 -14.70418,-1.66571 -2.91043,-2.04994 -3.09748,-5.68228 -2.92935,-8.09879 3.10911,-1.32385 6.71157,-4.17213 5.97357,-6.77771 -0.75115,-2.32809 -2.77858,-3.66354 -4.88225,-4.93968 -1.32357,-3.7239 3.06059,-4.96786 8.44342,-5.68639 1.15814,-0.13414 2.61551,-0.26043 4.13757,-0.27664 z" /></g></svg>
