<?xml version="1.0" encoding="UTF-8" standalone="no"?>
<!-- Created with Inkscape (http://www.inkscape.org/) -->

<svg
   width="50mm"
   height="75mm"
   viewBox="0 0 50 75"
   version="1.1"
   id="svg464"
   inkscape:version="1.2.2 (b0a84865, 2022-12-01)"
   sodipodi:docname="killerseddie.svg"
   xmlns:inkscape="http://www.inkscape.org/namespaces/inkscape"
   xmlns:sodipodi="http://sodipodi.sourceforge.net/DTD/sodipodi-0.dtd"
   xmlns="http://www.w3.org/2000/svg"
   xmlns:svg="http://www.w3.org/2000/svg">
  <sodipodi:namedview
     id="namedview466"
     pagecolor="#ffffff"
     bordercolor="#000000"
     borderopacity="0.25"
     inkscape:showpageshadow="2"
     inkscape:pageopacity="0.0"
     inkscape:pagecheckerboard="0"
     inkscape:deskcolor="#d1d1d1"
     inkscape:document-units="mm"
     showgrid="false"
     inkscape:zoom="1.1893044"
     inkscape:cx="193.39035"
     inkscape:cy="305.22043"
     inkscape:window-width="1440"
     inkscape:window-height="778"
     inkscape:window-x="0"
     inkscape:window-y="30"
     inkscape:window-maximized="1"
     inkscape:current-layer="layer1" />
  <defs
     id="defs461" />
  <g
     inkscape:label="Layer 1"
     inkscape:groupmode="layer"
     id="layer1">
    <path
       id="path1485"
       style="fill:#050505;fill-opacity:1;stroke:none;stroke-width:0.0599351;stroke-linecap:round;stroke-opacity:1;paint-order:stroke fill markers"
       d="m 8.959096,32.801642 c -0.00951,-0.298105 0.3238067,-0.439067 0.3157034,0.01456 -0.036141,1.972579 0.02745,3.962838 -0.7438343,5.804992 -0.3504478,0.833907 -0.5121677,1.545654 -0.7057629,2.278025 -0.06329,0.225344 -0.058647,0.438527 0.1996972,0.606286 0.4439957,0.253891 0.7989339,0.559027 0.9979011,0.798785 0.2271061,0.263984 0.498587,0.50976 0.8726965,0.713474 0.271169,0.158216 0.704995,0.883731 1.114019,0.951284 0.327954,0.04825 0.562504,1.448092 0.44637,2.083914 -0.02988,0.365682 -0.15511,0.26185 -0.288497,0.08161 -0.208149,-0.27868 -0.401788,-0.570366 -0.471749,-0.97301 -0.02445,-0.178529 -0.140064,-0.232956 -0.322945,-0.228743 -0.362938,0.05412 -0.287413,-0.382793 -0.05265,-0.473775 0.452607,-0.188082 0.19863,-0.297697 -0.01266,-0.41206 C 9.4923195,43.6193 8.8656973,43.170674 8.1936791,42.727118 7.8148065,42.465915 8.1314191,42.276184 8.400517,42.50567 l 0.3066202,0.23057 C 8.9741361,42.957401 9.060354,42.865161 8.8105534,42.625528 8.1848087,42.002209 7.4674903,41.670852 7.3608963,41.479976 7.0790622,41.026154 6.889735,41.058177 7.0270403,41.450908 l 0.1071125,0.368481 c 0.1333526,0.350896 -0.1649433,0.338687 -0.3084243,0.05082 L 6.5009497,41.327454 C 6.2917594,40.939518 5.9191915,40.96689 6.000193,41.4327 l 0.047271,0.42473 C 6.103521,42.306721 5.7524233,42.301717 5.677336,41.94816 5.5701833,41.372321 5.443155,41.783038 5.3199176,42.00438 L 3.565487,45.258885 c -0.2066791,0.386917 0.059731,0.372036 0.1850412,0.177906 l 0.9960527,-1.896797 c 0.2421365,-0.342847 0.3783876,-0.09633 0.2612762,0.119829 -0.3323203,0.709409 -0.5471493,1.205295 -1.4351336,2.259805 -0.2714527,0.35318 -0.2762169,0.471192 -0.3537873,0.684303 -0.1315648,0.474207 0.1950894,0.422513 0.3773778,0.272315 0.7961013,-0.63135 1.4915199,-1.293238 2.1282124,-1.972926 0.5261253,-0.418323 0.6715944,-0.671543 0.948889,-0.981929 0.3179252,-0.383249 0.8522737,-0.344746 0.9978932,-0.09429 0.1025094,0.176767 0.2452233,0.343435 0.6767603,0.437521 0.2512642,0.04651 1.6304021,1.605104 2.0738121,2.448936 0.23908,0.425522 0.505446,0.790521 0.905353,0.858691 0.235991,0.0154 0.531963,0.454308 0.431828,0.911289 -0.05647,0.32365 -0.215919,0.290572 -0.319325,0.10162 -0.106341,-0.230978 -0.237954,-0.45613 -0.598734,-0.628126 -0.336626,-0.154668 -0.618356,-0.555353 -0.576963,-0.72977 0.06613,-0.293766 -0.271419,-0.630595 -0.53162,-0.767906 -0.1902758,-0.0781 -0.2067094,-0.175502 -0.11426,-0.28501 0.08743,-0.09792 0.01196,-0.177737 -0.094361,-0.254131 L 8.7418214,45.279365 C 8.5835711,45.181485 8.501457,45.06988 8.0360315,45.026966 c -0.1522718,-0.0223 -0.3039801,-0.02337 -0.4608489,-0.279585 -0.3263257,-0.578901 -0.493568,-0.205565 -0.4626595,0.0018 0.018154,0.246309 -0.074861,0.590295 -0.3592319,0.486433 -0.3255921,-0.144155 -0.2353256,0.05268 -0.3120773,0.166968 -0.2692274,0.358795 -0.4263856,0.714516 -0.9379844,1.079965 -0.2823429,0.194357 -0.2414624,0.04657 -0.143372,-0.09985 l 0.644077,-0.898482 c 0.098899,-0.112522 0.1078478,-0.427667 -0.2086448,-0.09259 -0.8068842,0.907088 -1.543561,1.870353 -2.625325,2.557377 -0.4350456,0.281845 -0.3818166,0.508633 -0.3156884,0.878547 0.099233,0.536179 0.1341671,0.320203 0.3193163,0.34492 0.5912101,0.03524 1.0263456,0.01373 1.2210574,-0.317554 0.066364,-0.150701 1.6706017,-1.269911 2.601756,-2.472066 0.2734971,-0.339969 0.4828966,-0.361984 0.6767399,-0.306694 0.2672213,0.131864 1.0566471,-0.02775 1.1883988,0.876863 0.667438,0.841094 1.3365493,1.655834 2.0375273,1.973346 0.683429,0.339688 1.133933,0.993946 1.00515,1.310685 -0.137515,0.40111 0.295643,1.408571 0.125191,1.276114 -0.325376,-0.236803 -0.876283,-0.689499 -0.778356,-1.203569 0.05566,-0.239231 -0.06285,-0.427145 -0.381034,-0.751538 C 10.214728,48.830503 9.554302,48.267011 8.9050789,47.345101 8.7821016,47.145499 8.6250782,47.063088 8.6002675,47.279735 8.5056288,47.674025 8.1890773,47.592081 8.0759186,47.32145 8.0085707,47.162287 7.9198691,47.072528 7.8655116,46.765972 7.8268235,46.556768 7.67703,46.195168 7.4790739,46.709633 7.3575351,46.903169 7.3152563,47.263697 7.005535,47.059935 c -0.1349241,-0.04933 -0.2656947,0.02338 -0.3937347,0.17603 -0.5925821,0.667024 -1.3132447,1.391801 -2.4076004,2.285116 -0.3374359,0.276049 -0.039359,0.313508 0.088906,0.205134 l 0.3175087,-0.266807 c 0.2662527,-0.196995 0.3018109,0.07428 0.1034642,0.186967 -0.8125655,0.535556 -1.6616896,1.064088 -1.8252082,1.724279 -0.064201,0.297189 0.086394,0.350489 0.2067851,0.225111 0.2397069,-0.258051 0.8692797,-0.05364 1.8850881,-1.036302 1.0141253,-0.823299 1.3970052,-1.412084 1.9685314,-2.07095 0.3375444,-0.387846 1.0012688,-0.676266 1.338978,-0.148711 0.7332899,1.310757 1.7419878,2.377248 2.9574148,3.260422 0.601643,0.451821 0.82208,1.201681 0.615085,1.817083 -0.156339,0.437053 -0.368958,0.365586 -0.390086,0.208706 -0.03469,-0.180285 -0.04127,-0.370249 -0.204993,-0.506452 -0.12397,-0.08272 -0.349315,-0.470359 -0.306623,-0.677129 0.08548,-0.405065 -0.191632,-0.606106 -0.451782,-0.793289 C 10.217833,51.454642 8.967394,50.445892 8.9052018,50.173217 8.8285861,49.862771 8.490847,49.626675 8.3100779,49.726622 8.0866518,49.833828 7.8476515,49.567609 7.8474268,49.281844 7.8337016,48.525439 7.353562,48.832001 7.4283035,49.229161 7.500255,49.51803 7.2941549,49.874878 7.0963008,49.662953 6.6944029,49.233542 6.5287698,49.730584 6.3088619,50.015036 6.0446253,50.405561 5.7036726,50.629809 5.3164246,50.753718 4.3430558,51.131286 4.264156,51.810746 3.9701856,52.325565 3.7395835,52.80257 3.6469088,52.586606 3.6182197,52.430793 3.5232459,52.011079 3.3196134,52.179071 3.1337798,52.385362 2.543362,53.117188 3.0804435,53.78152 3.3478824,54.462 3.4460837,54.667289 3.2878771,54.87584 3.1011331,54.621709 2.7774949,54.11615 2.2050666,53.644683 2.4624681,52.889938 2.5668697,52.564238 2.5481454,52.271233 2.3499819,52.025889 1.9763225,51.642886 2.0196574,51.213583 2.2756114,50.760665 2.495873,50.362156 2.712554,49.995707 2.0741785,49.393785 1.7252159,49.079761 1.4726014,48.207861 2.1685074,47.564068 c 0.2349732,-0.268689 0.4675574,-0.539734 0.3882639,-1.118144 -0.074384,-0.348714 0.4070325,-0.893207 0.711199,-1.33593 0.9169173,-1.408553 1.4644803,-2.736247 1.9794199,-4.056809 0.1098646,-0.301288 0.1639429,-0.836964 0.932556,-0.682434 0.2800408,0.05143 0.5921056,-0.01139 0.8218956,0.256037 0.092949,0.10774 0.1616798,0.07607 0.194128,-0.03812 0.056771,-1.343487 0.6931826,-2.662569 1.3099287,-3.982448 0.5222955,-1.278416 0.4331103,-2.540032 0.4535529,-3.804663 z M 5.8694807,57.225079 c -0.3116422,-0.314653 -0.4284929,-0.03237 -0.1759719,0.201466 1.3715813,1.216353 2.7468764,2.360742 4.2274182,1.448967 0.226764,-1.438802 0.399007,-2.897723 0.48802,-4.387327 0.03991,-0.256852 -0.07258,-0.516029 -0.215806,-0.604505 C 9.998518,53.764103 9.916673,53.624616 9.83388,53.477044 9.632034,52.989202 9.2374287,52.903183 8.863216,52.774449 c -0.3204796,-0.06318 -0.4016,0.480799 -5.27e-5,0.446558 0.3923442,-0.01145 0.5800945,0.153908 0.2503537,0.766049 -0.1608706,0.337608 0.1160758,0.469118 0.1033839,0.633538 -0.040408,0.302187 0.1181849,0.527645 0.3610571,0.720678 0.174369,0.152858 -0.082174,0.692724 0.259629,0.996535 0.144105,0.120757 -0.02414,0.815332 -0.07619,1.248867 -0.0079,0.143598 -0.115766,0.317212 -0.2249506,0.05814 L 9.2932429,57.092979 9.0646408,57.118389 9.565418,58.352788 C 9.69794,58.691224 9.54335,58.831022 9.3368103,58.378198 8.686618,56.729952 7.5219295,56.011397 6.2542258,55.478994 c -0.2039742,-0.08576 -0.3365253,0.04351 -0.040001,0.235988 0.721014,0.491055 1.2196478,1.014359 1.4804992,1.572121 0.2306147,0.53365 -0.011412,0.295804 -0.1469465,0.165163 -0.249233,-0.266963 -0.5249699,-0.41019 -0.8255259,-0.437556 -0.2820354,-0.02949 -0.3986003,0.04483 -0.1959459,0.319454 0.2083333,0.262162 0.4674226,0.523785 0.8309782,0.784275 0.316437,0.214484 0.1924319,0.471144 -0.1378963,0.246849 -0.598213,-0.425006 -0.971568,-0.781812 -1.349898,-1.14011 z m 0.1106401,-5.106195 0.1959464,-0.02176 -0.039923,0.384831 0.3937221,-0.02721 -0.4989298,1.75891 -0.5243614,0.190533 c -0.2360299,0.106157 -0.2208651,0.245057 0.021828,0.19603 0.8849472,-0.170114 1.4371096,0.0759 1.8996235,0.43402 0.3198419,0.276139 0.025389,0.33864 -0.1252578,0.212374 C 5.986915,54.375765 4.1572353,54.824757 5.4122549,56.680456 5.5651188,56.900357 5.3055932,56.943054 5.1818266,56.838354 4.1609405,55.784887 4.6698675,54.298383 5.4212931,52.74324 L 5.7787233,52.68702 Z M 27.71244,61.07078 c 0.366867,-0.521502 0.514321,-0.128375 0.328417,0.220801 -0.492021,1.253069 -1.497666,2.218917 -1.152036,3.940392 0.148627,0.852882 -0.775584,1.731147 -1.434295,2.240943 -0.865831,0.740499 -0.936499,0.06925 -0.628641,-0.397963 1.048958,-1.512055 1.650158,-2.974388 2.150144,-4.425471 0.220248,-0.605554 0.468281,-1.123675 0.736411,-1.578702 z m -9.485432,-0.339293 c 0.758632,-0.686101 0.811781,-0.183054 0.297565,0.297728 -0.453244,0.550839 -0.982086,0.828986 -0.936172,3.180157 0.07209,1.381252 0.299981,3.446868 -0.09795,4.178634 -0.467512,0.938092 -0.910534,1.881471 -0.627737,2.980513 0.099,0.334588 -0.553454,1.498623 -1.103113,1.97485 -0.199471,0.205691 -0.248232,0.195041 -0.246736,-0.137989 -0.242821,-1.274058 -0.02567,-2.599236 1.204675,-4.036905 0.146081,-0.155472 0.314581,-0.761308 0.174178,-1.110916 -0.187527,-0.371076 0.02268,-0.707024 0.145125,-1.07457 0.209897,-0.593136 0.05854,-0.861717 -0.127026,-1.143616 -0.352804,-0.490054 -0.188402,-1.400078 -0.0109,-1.5865 0.269664,-0.321217 0.377793,-0.821993 0.272148,-1.419474 -0.10849,-0.626669 0.502746,-1.59733 1.05592,-2.101918 z m 2.616299,1.528681 c -0.07626,0.132049 0.05082,0.416831 0.3048,0.06536 1.121158,-1.600909 1.768732,-3.074138 2.340461,-4.526923 0.207466,-0.459726 -0.05837,-0.401493 -0.246734,-0.137976 -0.351797,0.4745 -0.676178,0.985033 -0.950724,1.560998 -0.145303,0.268545 -0.196049,0.523323 -0.243114,0.787775 -0.05663,0.241053 -0.161722,0.377105 -0.275763,0.493715 -0.09424,0.07207 -0.158667,0.179596 -0.34835,0.137977 -0.250373,-0.07143 -0.350754,0.01696 -0.301169,0.264985 0.101192,0.560058 -0.05416,0.976625 -0.279397,1.354126 z M 6.8157277,18.998982 C 3.4391066,19.974528 1.8161471,22.163948 0.61655845,24.646137 1.5760722,25.459543 2.5960551,26.266235 4.1984126,27.008236 4.7622773,26.110479 4.1293841,24.494032 3.7570324,23.034183 3.6311087,22.514756 3.3066003,22.747472 3.4441184,23.162371 l 0.452769,2.01487 C 4.1412962,26.100263 3.193812,25.799055 3.2328627,25.151912 3.3392493,24.699321 3.2818297,24.031106 2.924665,22.969763 2.8346388,22.557146 2.5310255,22.408279 2.0682156,22.998735 1.7511187,23.493796 1.2562584,23.979165 1.175409,24.487148 L 0.93599345,24.414653 C 2.3205682,21.909782 4.0744266,19.975942 6.7310076,19.437972 c 0.077688,0.500346 0.1291866,0.983439 0.4826479,1.666253 0.2008336,0.369152 0.1055164,0.610995 -0.06887,0.867734 -0.4206984,0.703772 0.0012,1.543952 0.3627878,2.374342 0.2042708,0.502217 -0.092479,0.702986 -0.3627309,0.305025 L 6.8669531,24.092229 c -0.1821345,0.496883 -0.3620848,0.986254 -0.605407,1.70444 l 0.092419,2.936832 c 2.5050438,1.079833 5.0541239,3.306572 7.4409689,6.377329 0.68456,0.485139 0.595037,0.796023 -0.03061,0.985981 l -0.631272,0.210192 c -0.488805,0.175568 -0.380944,0.804587 0.251576,0.580286 0.755733,-0.306166 1.576645,-0.642984 1.631652,-1.303942 l 0.11806,-4.831316 C 15.15329,30.353858 15.09858,29.923944 14.79569,29.386326 13.992835,28.064781 12.986286,26.729145 11.213895,25.340282 9.71324,24.178878 8.2302754,22.531808 6.8159662,18.998994 Z m 1.0006041,7.095649 c 0.054073,-0.01077 0.1133703,0.03428 0.127126,0.11159 0.086488,0.348252 0.2339279,0.415967 0.3578648,0.591841 0.1508464,0.175849 -0.1760918,0.479672 -0.3949113,0.230732 -0.1602971,-0.220172 -0.1993412,-0.496167 -0.1828476,-0.798083 0.011274,-0.08578 0.050202,-0.127776 0.092379,-0.135985 z m 0.093324,2.90468 c 0.043141,-0.0048 0.090841,0.0036 0.1348887,0.03386 1.6019405,0.976373 3.0003375,2.164922 4.3683305,3.384895 0.277187,0.230762 0.423541,0.116646 0.165848,-0.142448 l -2.395907,-2.297384 c -0.157666,-0.164007 -0.03937,-0.298921 0.138914,-0.164276 l 3.373829,3.21414 c 0.09483,-0.05232 0.293905,0.02925 0.202245,-0.262342 0.171197,0.0084 0.233363,-0.06145 0.165094,-0.224979 0.194843,-0.03392 0.157507,-0.1253 0.107983,-0.218913 0.172681,-0.207243 0.04195,-0.427097 -0.06413,-0.646016 -0.07587,-0.146835 -0.138434,-0.296571 0.04337,-0.352203 0.355593,-0.121548 0.337973,-0.570702 0.327698,-0.846757 -0.05812,-0.592657 0.449544,-0.239968 0.423556,0.01912 l -0.207731,4.902057 -0.212303,0.02361 C 12.515718,33.170836 10.552946,30.9173 7.8815922,29.282726 7.6926737,29.159457 7.7796821,29.01439 7.9090664,28.999364 Z m 3.8122352,27.017813 0.759493,-1.791766 c -0.294007,1.310499 0.555137,1.955982 1.498487,2.546731 l -0.941685,-0.480144 c -0.291816,-0.150006 -0.477324,0.116405 -0.218098,0.351663 l 1.436903,1.150213 -1.18287,-0.546914 c -0.420739,-0.212979 -0.451331,0.169725 -0.189876,0.395314 -0.486223,-0.296145 -1.007639,0.118049 -1.203379,-0.310751 0.07189,-0.39921 0.213525,-0.690409 0.359193,-0.975455 0.207026,-0.435105 -0.06739,-0.647826 -0.318168,-0.338891 z M 5.0888576,25.552651 C 5.0692109,25.102443 5.4790178,25.166774 5.508377,25.541131 L 5.7586301,27.58327 C 5.7814174,27.802651 5.5480906,27.886416 5.2929067,27.705118 5.1097702,27.560603 4.8637396,27.4897 5.1042999,26.848981 5.2156971,26.58619 5.1050191,25.999224 5.0889445,25.552579 Z m 0.3514907,-3.781306 c 0.3325733,-0.301782 0.6190834,-0.121627 0.4592911,0.136099 -0.424521,0.66426 -0.1432395,1.383459 0.069301,2.097329 0.09911,0.331256 -0.3967758,0.461919 -0.5131764,0.01013 C 5.2653749,23.118714 4.9742215,22.141863 5.440342,21.771267 Z M 5.1812344,20.49032 6.3358674,20.151572 c 0.3041078,-0.09321 0.044538,-0.436359 -0.1949587,-0.282413 z M 19.34255,22.254446 c -0.182455,-0.393921 0.07748,-0.329521 0.210458,-0.03992 0.418504,0.795028 0.409562,1.498345 0.46082,2.214618 0.10473,0.887995 -0.05547,2.007679 0.613567,2.54493 1.047865,0.754283 0.675861,1.585277 0.872719,2.201944 l 0.575214,1.90421 -0.914445,-2.280015 -0.147048,0.0163 c 0.05943,0.746528 -0.08415,1.251193 -0.235839,1.746227 -0.04301,-0.887788 -0.117275,-1.768721 -0.727569,-2.532312 -0.145078,-0.176581 0.09927,-0.153284 0.257605,-0.06183 0.177498,0.08244 0.260729,0.382877 0.341107,0.689817 0.271212,-0.60013 -0.129363,-0.805474 -0.500771,-1.383242 -0.527494,-0.840735 -0.426304,-1.53145 -0.346598,-2.227304 0.08188,-0.807084 -0.02783,-1.853718 -0.458975,-2.793671 z m 0.891374,0.633766 c 0.02654,-0.216757 0.107926,-0.150565 0.150097,-0.01669 0.324708,0.679018 0.696944,1.315443 1.218802,1.817624 0.390504,0.407298 0.08498,0.349678 -0.08979,0.243871 -0.181206,-0.11616 -0.512579,-0.200901 -0.396434,0.11414 0.201076,0.600572 0.40592,1.203078 0.350178,1.680235 -0.01112,0.124971 -0.04341,0.147836 -0.137285,0.02745 -0.448263,-0.533313 -0.781569,-1.168557 -0.750542,-2.126926 0.01523,-0.253967 -0.04139,-0.701614 -0.246315,-1.165475 -0.137479,-0.284551 -0.111427,-0.423409 -0.09875,-0.573777 z m 3.230882,8.94736 c 0.14731,0.166494 0.254951,0.0654 0.152403,-0.116154 -0.428452,-0.823443 -1.004054,-1.630565 -0.939855,-2.508728 0.04847,-0.608839 -0.288065,-1.402818 -0.763847,-2.263648 -0.07237,-0.155741 -0.232732,-0.185792 -0.1633,0.01816 0.291999,0.940675 0.392131,1.685753 0.297599,2.232744 -0.07333,0.635756 0.778351,1.776909 1.417018,2.637649 z m 0.547432,2.339297 c 0.08438,0.109759 0.215819,0.07174 0.10254,-0.128375 -0.309664,-0.665855 -0.784939,-0.810131 -0.846761,-2.256569 -0.436001,-0.133973 -0.731066,-0.758491 -1.012248,-1.431256 -0.03326,-0.14092 -0.203744,-0.160135 -0.150102,0.01666 0.498993,2.020694 1.199036,2.932373 1.906492,3.79949 z m -0.08985,-3.018919 0.159018,-0.04142 c 0.575486,1.157006 1.173278,2.233309 1.837193,3.070446 0.179279,0.203648 0.357562,0.441614 -0.0513,0.379911 -0.74676,-0.06866 -1.341551,-0.846913 -1.842305,-2.064129 l 0.18224,-0.04339 0.690225,1.162975 c 0.155926,0.261856 0.327774,0.181369 0.228335,-0.04885 z M 1.4504908,25.839801 6.736213,30.491923 7.9498936,32.368581 8.2193073,32.268507 7.5598527,31.172294 7.7677017,31.149219 8.3604389,31.855237 8.8479284,31.613974 7.9934958,30.656361 8.3116506,30.574154 6.8157397,29.52406 6.7381759,29.252081 3.5616272,27.172422 3.2999097,27.131367 Z M 19.850265,21.749676 c -0.417521,-1.015098 -0.514863,-2.120813 -0.388804,-3.289777 -0.123495,0.355158 -0.23355,0.715281 -0.165495,1.141058 0.02477,0.181851 -0.09052,0.288051 -0.173182,0.01926 -0.169037,-0.575563 -0.244171,-1.128236 -0.06293,-1.618559 -0.776408,-1.33977 -0.259991,-2.943381 -0.168092,-4.460364 -0.259005,0.495653 -0.457993,1.394987 -0.656862,2.29494 -0.08971,-0.393413 -0.202567,-0.7763 -0.237356,-1.189877 -0.0631,0.236994 -0.174318,0.479335 -0.282236,0.721326 l 0.236052,-1.452965 c 0.054,-0.169863 -0.189284,-0.300851 -0.247603,-0.01921 -0.777268,3.054261 -0.947159,5.824571 0.107829,8.022199 l -0.09702,-0.983249 c -0.01184,-0.202399 0.03301,-0.406004 0.218041,-0.03647 0.364545,0.728465 0.390677,1.600918 0.47089,2.45034 0.143905,-1.155826 0.453093,-2.146279 -0.342524,-4.242174 -0.32633,-0.782557 -0.258903,-1.304612 -0.190618,-1.826592 0.07321,-0.373523 0.347841,-0.501352 0.383594,-0.01918 0.113389,1.711604 0.886066,3.084399 1.597283,4.488745 z m -3.71018,-8.682342 c 0.451546,-1.462569 0.670552,-3.033283 1.992111,-4.0912981 0.424327,-0.3575639 1.356706,-1.4362797 3.234959,-2.4266218 -0.776784,0.051017 -1.525626,0.3535483 -2.244324,0.9273491 0.108494,-0.1443609 0.0953,-0.2752035 0.397317,-0.4410541 0.203324,-0.098706 0.103826,-0.38615 -0.117996,-0.3176609 l -0.49712,0.1379251 c 0.860993,-1.1285177 1.819195,-1.3815691 2.779565,-1.6152705 -1.472699,-0.030525 -2.951888,0.6793777 -4.434239,1.7494316 -0.184888,0.1436435 -0.166038,0.5636694 0.148872,0.2976935 0.3416,-0.3064722 0.38846,-0.2235657 0.388284,0.072642 -0.06864,0.7512339 -0.367816,1.5115264 -0.870872,2.2798256 -0.95341,1.6243875 -0.642739,2.3830535 -0.77651,3.4270515 z m 0.371983,3.200271 c -0.413267,-2.790236 0.331396,-5.375094 2.971821,-7.6236157 -1.835038,2.1493477 -2.66705,4.7641467 -2.971821,7.6236157 z m 1.962817,-3.007481 c 0.410635,-1.258325 0.731369,-2.503454 2.83911,-4.0108116 0.227449,-0.1232164 0.03153,-0.3103182 -0.06091,-0.4376252 -0.108419,-0.1523353 -0.320036,-0.075053 -0.466997,0.00509 -0.431899,0.217447 -0.619078,0.5251203 -0.868548,0.8098342 l 0.256581,-0.00509 c 0.132555,0.00318 0.193591,0.06008 0.08591,0.1424928 -1.319532,1.0886538 -1.755278,2.2709658 -1.785795,3.4962078 z m 2.873756,-2.54114 c 0.241108,-0.270777 0.498783,-0.354379 0.728661,-0.174676 0.31613,0.206576 0.330321,0.353143 -0.0051,0.585306 -2.016138,1.331005 -2.193297,2.457764 -2.753135,3.627032 0.03168,-1.130956 0.333052,-2.351835 2.029567,-4.037855 z m 8.979736,-7.5437914 c -1.572583,1.3062588 -2.874118,3.0202861 -3.675362,5.4845393 l 0.580072,-0.7250597 c -0.511478,1.2322162 -0.694557,2.5642418 -0.905298,3.8876508 -0.07252,-0.466625 -0.0549,-1.259619 0.05649,-2.3912592 -0.293835,1.5325302 -0.846902,2.9949492 0.03897,4.8461982 -0.121943,-0.08339 -0.234426,-0.08055 -0.371238,-0.297164 -0.02453,0.21859 0.103916,0.350382 0.215647,0.491743 0.137522,0.156607 0.214949,0.319917 0.119913,0.502436 -0.07966,0.228885 0.05018,0.368818 0.169525,0.513029 0.174442,0.2223 0.151295,0.237846 0.01763,0.304395 -0.183277,0.09016 -0.401915,-0.138908 -0.64167,-0.55733 0.04358,0.585147 0.233011,1.178432 0.535641,1.77777 -0.464014,-0.14642 -0.805912,-1.232807 -1.145428,-2.338629 -0.103839,0.529796 -0.0056,1.018566 0.118265,1.501898 -0.181949,-0.144152 -0.330983,-0.4176 -0.468367,-0.737684 -0.01928,0.828807 0.405119,1.66748 0.680536,2.502867 -0.701311,-0.440466 -0.899077,-1.041305 -1.209271,-1.606211 -0.216361,0.337691 0.399809,1.209448 1.141949,2.161715 -0.518384,-0.135263 -0.955376,-0.775582 -1.414295,-1.277386 0.26818,0.514294 0.48796,1.04306 1.096085,1.457665 0.690883,0.284389 1.051781,0.629603 1.46052,0.9659 0.291588,0.246442 0.54096,0.195163 0.351584,-0.168142 -0.122803,-0.276802 -0.402557,-0.611522 -0.70186,-0.953427 -0.211647,-0.222009 -0.264928,-0.468367 0.141423,-0.176814 0.404905,0.31287 0.80026,0.83846 1.066146,1.622108 0.175224,0.496233 -0.340728,0.706927 -1.196909,0.100624 -0.702495,-0.562635 -1.524802,-0.943709 -2.315881,-0.838541 -0.573913,0.09681 -1.228465,0.0022 -1.17561,0.871763 0.0575,0.656051 0.424496,1.460591 0.958163,1.811381 0.67584,0.375161 1.412604,0.622309 2.535301,0.05682 -0.536985,0.473196 -1.130044,0.633453 -1.746725,0.661472 l 0.266895,0.2282 -0.678836,-0.02139 c 0.322803,0.144002 0.516708,0.416999 1.357665,0.04266 1.013651,-0.554658 1.683097,-1.312735 2.312578,-2.094101 0.285712,-0.292137 0.470015,-0.0686 0.211919,0.169913 l -0.364089,0.346508 c -0.09207,0.103941 -0.01651,0.166244 0.09378,0.118673 l 0.339451,-0.134499 -0.823818,1.139045 0.187374,0.09173 0.523347,-0.799318 c 0.308335,-0.465444 0.488942,-0.305223 0.601002,0.191096 -0.423907,-0.20944 -0.554988,0.188003 -0.756768,0.438632 l -1.352392,2.470805 c -0.324179,0.598261 0.365739,1.744809 1.218075,2.556061 0.769526,0.786517 1.485714,1.52756 1.653083,2.265769 0.202743,0.710471 0.34283,1.187944 0.496958,1.717674 0.119923,0.445013 0.346944,0.522299 0.394269,0.359006 0.04683,-0.179296 0.0528,-0.401949 -0.32369,-1.027768 -0.121979,-0.617745 -0.413646,-1.308839 -0.231683,-1.795056 0.07049,-0.140884 0.284701,-0.02242 0.27048,0.114973 -0.03952,0.91253 0.101424,1.5611 0.467257,1.881729 l 0.229849,-0.251032 0.106329,0.520051 c 0.119239,0.492121 0.301401,-0.04267 0.240467,-0.300725 -0.05908,-0.38401 0.179113,-0.398772 0.284465,-0.04777 0.149537,0.400882 0.551837,0.182509 0.611696,-0.0036 l 0.07983,-0.29877 c 0.03007,-0.110071 0.173282,-0.175449 0.157322,-0.03356 l -9.1e-5,0.2902 c 0.459272,0.06139 0.891217,-0.01121 1.439103,0.484617 0.615547,0.540783 2.240504,-0.222191 2.823306,-1.554273 0.169874,0.75164 -0.264672,1.524042 -0.630933,2.293932 0.407211,-0.421991 0.690489,-0.922389 0.986274,-1.414924 -0.172671,1.140104 -1.322722,2.443063 -2.641113,3.774096 -0.610292,0.586591 -0.772289,0.382788 -1.025476,0.339688 -0.346047,-0.103669 -0.245599,-0.333856 -0.236972,-0.537869 0.04157,-0.260328 -0.157963,-0.22924 -0.199552,-0.05838 l -0.178776,0.567897 c -0.06917,0.228856 -0.341246,0.181681 -0.46651,-0.141645 -0.162692,-0.579638 -0.02996,-0.957721 0.127025,-1.319501 0.126325,-0.298657 0.21389,0.01037 0.09729,0.585452 -0.05121,0.191493 0.249349,0.213567 0.286523,-0.03182 0.07611,-0.408063 0.173075,-0.799433 0.411964,-1.07713 0.312186,-0.314612 0.427374,-0.09352 0.350041,0.106295 l -0.247734,0.671986 c -0.06001,0.186926 0.125103,0.254413 0.201614,0.07438 l 0.165083,-0.405066 c 0.09914,-0.261413 0.25378,-0.118216 0.182123,0.04423 l -0.185879,0.503995 c -0.06642,0.152391 0.169311,0.244846 0.237099,0.102752 0.156434,-0.235167 0.310312,-0.491545 0.4895,-0.521831 0.237137,-0.05928 -0.432851,0.883582 -0.657442,1.330188 1.218657,-1.3461 2.28061,-2.707778 2.681721,-4.133461 -0.556624,0.877714 -0.73453,0.990818 -1.07306,1.069998 -0.204904,0.0365 -0.417452,0.0917 -0.756486,0.438599 -0.271611,0.286418 -0.713379,0.313119 -0.928352,-0.09035 -0.160483,-0.306083 -0.329224,-0.380247 -0.510863,-0.104389 -0.145964,0.212913 -0.350995,0.166392 -0.304165,-0.127326 0.03837,-0.163276 0.145888,-0.361535 -0.473826,-0.350159 -0.373512,0.0012 -0.502821,0.155238 -0.505493,0.523323 l -0.01761,0.566147 c -0.143499,-0.711705 -0.561778,-0.675888 -0.924719,-0.348612 -0.592667,0.597565 -0.698461,0.365945 -0.947609,0.02469 -0.226737,-0.294467 -0.413772,-0.945003 -0.450729,-1.303547 -0.05369,-1.387929 -0.841898,-1.912883 -1.407309,-2.518869 -0.665332,-0.778251 -1.379282,-1.308407 -1.827995,-2.681779 -0.249048,-0.796533 0.398796,-1.791291 0.949239,-2.76442 l -0.866395,1.047039 c 0.155144,-0.480349 0.222047,-0.910606 0.952994,-1.717306 -1.090237,0.431183 -2.156175,2.146927 -3.026508,1.02913 0.01615,1.019631 0.837921,0.712747 1.792519,0.187526 -0.360556,0.975409 -0.572394,1.964036 0.127197,3.031783 -0.271394,-0.276475 -0.630134,-0.635231 -1.057044,-0.672303 -0.58673,-0.136526 -0.9773,-0.749088 -0.989983,-1.372719 0.04516,-1.462794 -0.434779,-2.53725 -1.258845,-3.357108 -0.386758,-0.426881 -0.434715,-1.311757 0.104259,-2.106675 0.983577,-1.231277 0.263909,-2.410096 0.02658,-3.097083 -0.163134,-0.512126 0.148776,-0.628813 0.855514,-0.417255 -0.211818,-0.365377 -0.46336,-0.436846 -0.724783,-0.435196 0.203002,-0.395483 0.569812,-0.358186 1.202311,0.38216 0.01681,-0.472807 -0.23802,-0.850547 -0.599475,-1.190596 0.240299,-0.200611 0.741615,0.302353 1.136636,0.518512 -0.544148,-1.050068 -1.475898,-1.281606 -2.733097,-0.824544 1.327162,-1.057609 2.299712,-0.53373 3.205167,0.288474 -0.28188,-0.5146 -0.933069,-1.275207 -1.439059,-1.354897 -0.798172,-0.05437 -1.761357,-0.08805 -2.361694,0.633068 -1.478779,2.217551 -0.78971,2.992172 -0.622429,4.114081 0.305817,-1.133857 0.386588,-2.397502 1.615701,-2.999872 -0.982386,1.070213 -1.204506,2.621631 -1.385859,4.198881 -0.171161,-0.03918 -0.235738,-0.413809 -0.321749,-0.721622 -0.423358,0.690133 0.0438,1.762288 0.558626,2.854812 -0.28144,-0.110392 -0.544104,-0.394835 -0.7956,-0.781616 0.08513,0.581171 0.531516,1.21123 0.977651,1.841283 0.227712,0.29522 -0.04574,0.298317 -0.176874,0.148426 l -0.896311,-1.109124 c 0.161567,1.28532 0.795378,2.277156 1.607256,3.157606 l -0.463254,-0.109663 c 0.333263,0.612281 0.787222,1.056211 1.287047,1.436154 0.216511,0.174325 0.175696,0.22485 -0.01939,0.260002 -0.09623,0.02294 -0.147146,0.09045 -0.102586,0.237206 0.654906,2.238715 1.41308,4.175404 2.613049,4.818161 0.159179,0.07543 0.168431,0.0012 0.09729,-0.139583 -0.09016,-0.164876 -0.178435,-0.277632 -0.274238,-0.58194 -0.05122,-0.177462 0.110603,-0.151175 0.203478,-0.05472 0.23806,0.27352 0.418821,0.649505 0.530273,1.149771 0.02724,0.175808 -0.0063,0.236516 -0.229776,0.106043 -0.834291,-0.474464 -1.61289,-1.165917 -2.215328,-2.541734 -0.07692,-0.182376 -0.276895,-0.182113 -0.189225,0.03728 0.343181,0.793139 0.834545,1.667335 1.500973,2.637241 -0.07296,0.257559 0.05467,0.588814 0.18447,0.785305 0.747354,1.173572 1.501733,2.44407 2.151726,3.419065 0.09797,0.125564 0.311749,0.274119 -0.244014,0.268761 -0.451329,-0.02278 -0.938234,-0.161238 -1.241097,-0.29729 -0.176655,-0.09309 -0.383247,0.108878 -0.756611,-0.721529 -0.13778,-0.345298 -0.380352,-0.251698 -0.267018,0.06166 0.15471,0.463856 -0.05136,0.252992 -0.272289,0.01432 l -0.542603,-0.681223 c -0.162593,-0.193728 -0.271341,-0.100943 -0.166217,0.099 0.241247,0.483676 0.491839,0.872379 0.754705,1.141015 0.245477,0.2531 -0.0932,0.436213 -0.286195,0.03182 -0.254746,-0.505499 -0.609132,-0.617721 -1.021936,-0.498918 -0.09935,-0.130005 -0.212318,-0.252806 -0.802659,-0.120188 -0.951479,0.201209 -1.680026,0.507902 -1.919818,0.98676 -0.726037,1.551732 -0.527014,2.650253 -0.141541,3.657594 0.408446,1.157036 0.703258,2.247411 0.723251,3.175219 0.630054,2.049475 -0.28611,3.661142 -1.485005,5.192748 -0.186739,0.174045 -0.38095,0.209557 -0.594252,-0.127452 -0.137982,-0.184097 -0.349571,0.02811 -0.204927,0.184186 0.29656,0.327552 0.576396,0.6527 0.751192,0.963811 0.07517,0.119516 0.203942,0.10675 0.252832,-0.04399 0.353675,-0.909473 0.810945,-1.830676 1.463962,-2.773401 l 2.432243,-3.621945 c 1.043708,-2.037494 2.508179,-3.104339 3.855599,-4.441156 1.081015,-1.132773 2.313634,-2.219648 3.613662,-3.285858 l -1.154213,0.627706 c -0.275924,-0.0036 -0.502329,0.06954 -0.413724,0.190816 0.11998,0.187357 -0.246013,0.210282 -0.585206,0.242287 -1.32918,1.069992 -2.599991,2.175297 -3.527096,3.485874 -0.174094,0.188263 -0.345469,0.02457 -0.194487,-0.155693 0.952198,-1.123352 1.479991,-2.306165 3.141492,-3.330139 0.185646,-0.100121 0.01704,-0.336847 -0.282863,-0.226434 -0.283808,0.111928 -0.580703,0.07215 -0.915827,-0.413966 -0.08642,-0.153129 -0.18251,-0.28664 0.01971,-0.260041 0.12011,0.0208 0.241188,0.03033 0.367834,-0.02463 0.163429,-0.07956 0.157724,-0.262042 -0.03031,-0.415572 -0.48691,-0.421326 -0.886589,-0.861292 -1.225026,-1.314281 -0.177266,-0.255564 0.01798,-0.272831 0.146678,-0.129154 l 0.491493,0.50931 c 0.129367,0.137383 0.247287,5.52e-4 0.130749,-0.127074 -0.248078,-0.332796 -0.580678,-0.636319 -0.731919,-1.224103 -0.05147,-0.242006 0.07947,-0.25717 0.134568,-0.09549 l 0.06525,0.153872 c 0.04519,0.120086 0.288009,-0.0087 0.197862,-0.102489 -0.329365,-0.40452 -0.402918,-0.729429 -0.487755,-1.057753 0.531067,0.490928 0.987375,1.401187 1.626502,2.171982 0.110098,0.123299 0.108789,0.243253 -0.136372,0.07979 -0.313602,-0.201772 -0.379728,-0.448117 -0.479023,-0.688277 -0.0292,-0.101626 -0.270526,-0.138204 -0.178625,0.132703 0.07513,0.230792 0.29885,0.559901 0.569403,0.919926 0.203907,0.279267 -0.0046,0.244427 -0.130783,0.272375 0.20188,0.375973 0.454103,0.760654 0.617056,0.769387 0.279972,0.01241 0.465987,0.122237 0.66809,0.215682 0.09615,-0.171133 0.283996,-0.263708 0.471929,-0.100661 0.116647,0.08414 0.302829,0.07279 0.313135,-0.08307 0.0229,-0.09275 0.108296,-0.124731 0.261687,-0.109909 l 0.677095,0.0054 c 0.133799,-0.01031 0.114803,-0.198948 0.06696,-0.410525 -0.08924,-0.443934 -0.181208,-0.893213 -0.174899,-1.140727 0.0088,-0.269516 0.255383,-0.285795 0.286488,-0.03183 l 0.09724,0.875329 c 0.01255,0.153613 0.212255,0.167422 0.192501,-0.0054 l -0.04232,-0.672124 c 3.53e-4,-0.162904 0.203814,-0.263193 0.238609,-0.02649 l 0.09385,0.553776 c 0.01912,0.158013 0.172861,0.146703 0.143083,-0.01588 l -0.08488,-0.909353 c -0.0305,-0.23271 0.147379,-0.186662 0.187495,-0.0528 0.189868,0.565626 0.242476,1.248323 0.11296,1.598895 -0.220011,0.497204 -0.142427,0.94918 -1.05167,1.550983 -1.147205,0.759528 -4.365018,4.941308 -6.032047,7.760824 -0.17451,0.306646 -0.0162,0.600088 0.247375,0.198013 2.184334,-3.02773 4.185736,-6.169349 7.686845,-8.379438 0.836908,-0.484186 0.734329,0.05532 0.533805,0.456406 -0.217686,0.553663 -0.398269,1.092144 -0.514466,1.604205 -0.01263,0.117773 -0.127601,0.03308 -0.21016,-0.153955 -0.07234,-0.211559 0.0249,-0.464743 0.226167,-0.718095 0.306667,-0.451131 -0.04062,-0.503856 -0.380145,-0.231787 -1.333032,1.105114 -2.410029,2.232751 -3.606572,3.349756 -1.479312,1.363572 -2.876533,3.51698 -3.793898,5.433315 -0.376187,0.742351 0.373406,0.950559 1.281722,0.663218 2.00061,-0.659879 3.548377,-2.0388 5.413504,-2.889513 -0.931976,1.288359 -1.473651,0.953885 -2.328416,1.805677 -0.152403,0.160872 -0.290645,0.422261 -0.44366,0.355343 -0.190851,-0.07682 -0.294849,1.32e-4 -0.37317,0.121956 -0.314434,0.478822 -0.949917,0.882407 -1.474233,0.937265 -0.574436,0.06229 -1.249878,0.137845 -1.520445,0.378443 -0.307384,0.295462 -0.513565,0.01414 -0.710725,-0.162736 -0.118052,-0.109687 -0.289876,-0.11236 -0.261701,0.109603 0.06103,0.438863 0.07508,0.849467 -0.201479,1.085797 -0.358757,1.297505 -2.829762,6.339912 -3.325475,9.216908 -0.0963,0.448404 -0.328116,0.646831 -0.291547,-0.01612 0.163082,-2.499914 0.891389,-5.062404 1.681051,-7.631864 1.548005,-6.017671 3.237804,-7.377916 4.891873,-9.906591 0.13996,-0.178804 0.03967,-0.427493 -0.284675,-0.09717 -1.873454,2.134409 -3.601504,4.28566 -4.8034,6.496258 l 0.139705,0.09704 1.083596,-1.554513 0.157224,0.111642 -1.216254,2.826126 c -0.63762,1.333694 -1.17901,2.697523 -1.456789,4.142367 -0.576719,1.469825 -1.073491,2.855507 -1.155954,3.802889 -0.109839,0.937068 -0.414193,1.752445 -1.076812,2.343471 -0.257402,0.242755 0.21519,0.725527 0.482651,0.429741 0.259687,-0.255503 0.583191,-0.278099 0.951217,-0.137653 0.310608,0.145253 0.657009,0.289463 0.951096,0.152199 0.193298,-0.09669 0.358176,-0.06121 0.494913,0.106151 0.157072,0.153266 0.346621,0.07804 0.481091,-0.166272 0.489355,-0.995792 1.119136,-1.879154 1.720007,-2.785648 l 5.477094,-7.68301 5.708526,-6.757912 -0.178776,-0.157431 c -0.819684,0.543935 -1.406266,1.127391 -2.017063,1.7067 l -0.04596,-0.413846 c -0.552392,0.613346 -1.664427,1.20457 -2.699464,1.798677 -0.299514,0.133421 -0.290884,-0.262247 -0.0055,-0.338106 0.50002,-0.119319 0.575377,-0.28302 0.447243,-0.468627 0.365434,-0.204876 0.809994,-0.406168 1.464059,-0.597733 0.304505,-0.08818 0.27457,-0.318291 -0.03716,-0.334276 -0.198429,-0.01271 -0.378154,0.03434 -0.553511,0.09379 -0.361408,0.147651 -0.48799,0.136431 -0.284708,-0.09747 0.185094,-0.176761 -0.18939,-0.152169 -0.298567,-0.07938 -0.494472,0.335517 -1.052211,0.421565 -1.65497,0.328678 -0.525553,-0.09353 -0.548096,-0.445875 -0.358864,-0.910966 0.231991,-0.528543 0.581513,-0.626447 1.018404,-0.403291 0.639179,0.294719 1.059058,0.03171 1.484943,-0.261401 0.556539,-0.423891 0.777739,-1.103441 0.993776,-1.786516 -0.160552,0.278542 -0.333975,0.541232 -0.581812,0.70938 -0.139449,0.101099 -0.221834,0.01241 -0.09547,-0.134566 0.431442,-0.545524 0.867179,-1.092132 0.924833,-1.53688 0.296941,0.850695 0.122254,1.566841 -0.268719,2.221369 l -0.141508,-0.258009 c -0.06249,0.432785 -0.182174,0.889982 -0.532142,1.44506 -0.130424,0.203066 0.03838,0.359688 0.300595,0.240333 0.248082,-0.102872 0.495172,-0.189916 0.752946,-0.470251 0.463639,-0.529269 0.766878,-1.065562 1.596568,-1.579434 0.637816,-0.409434 1.458911,-1.309534 1.930613,-2.196633 0.08791,-0.165739 0.280233,-0.12759 0.212003,0.02499 l -0.360715,0.668352 0.571079,-0.369494 c -0.328036,0.54674 -0.876147,1.11791 -1.502615,1.697782 -0.152131,0.135118 -0.162354,0.306017 0.167844,0.206866 0.852914,-0.260376 1.652731,-0.801159 2.432669,-1.446504 1.28826,-1.105611 2.664955,-2.462836 3.007161,-3.814738 0.479601,-1.92897 1.216731,-3.495536 2.236365,-4.664079 0.230468,-0.248173 -0.05148,-0.393971 -0.173159,-0.254784 l -0.643637,0.732114 c -0.156443,0.179068 -0.268491,0.375193 -0.242096,-0.150407 0.05634,-0.921976 0.116232,-1.843239 -0.05484,-2.814032 -0.02601,-0.1792 -0.18946,-0.07405 -0.191007,0.02122 l -0.01229,1.339118 c -0.02385,0.269846 0.02607,0.620533 -0.309481,0.550067 -0.304357,0.991902 -0.518367,2.145239 -1.069526,2.69723 l -0.06373,-0.573304 -0.33593,0.166392 c 0.35418,-0.614089 0.743366,-1.232158 0.940592,-1.828812 0.07809,-0.198163 -6e-4,-0.315678 -0.173237,-0.109849 -0.290394,0.342331 -0.415614,0.608491 -1.021917,1.096669 -0.179592,0.130209 -0.244392,-0.04909 -0.09902,-0.166296 1.219131,-1.073354 1.287786,-1.990589 1.304669,-2.900626 0.007,-0.157018 -0.105108,-0.234766 -0.18565,-0.07616 -0.301705,0.503161 -0.763816,1.051831 -1.239145,1.604127 -0.10012,0.09793 -0.288778,0.06427 -0.127454,-0.130856 0.534327,-0.617218 1.028289,-1.234478 1.292458,-1.851726 0.08467,-0.2014 -0.139378,-0.255707 -0.20696,-0.122333 -0.103572,0.264236 -0.39174,0.512457 -0.640097,0.764059 0.755328,-1.136888 0.744518,-2.311731 0.562194,-3.494964 l -0.433174,0.0158 c 0.223033,-0.676424 0.229013,-1.465138 0.266952,-2.237357 l -0.5426,0.189352 c 0.789896,-0.726537 0.414157,-2.28368 0.210159,-3.03691 -0.382314,-1.36007 -0.540109,-2.481519 -1.803271,-4.77962 -0.454011,-1.205615 -1.331009,-1.954376 -2.489176,-2.398718 -0.169616,-0.05727 -0.290383,0.07602 -0.07777,0.170055 1.132015,0.471229 1.901115,1.223568 2.208324,2.333176 1.102827,1.821777 1.874358,3.373062 1.824402,5.115374 -8.39e-4,0.205182 -0.220615,0.18334 -0.240399,0.01048 -0.102155,-0.397128 0.05149,-0.672582 -0.295359,-1.64303 -0.249578,0.586361 -0.459651,1.168246 -0.436745,1.724344 -0.345345,-0.112019 -0.674044,-0.07551 -0.986388,0.109553 0.276588,0.03237 0.496877,0.09152 0.692949,0.293786 0.304488,0.332534 0.186977,0.283108 0.02835,0.254689 -0.275638,-0.06325 -0.514941,-0.149984 -0.751191,-0.238809 l 0.09179,0.247655 c 0.283798,0.09129 0.549664,0.134209 0.921115,0.461604 0.288892,0.313873 0.02889,0.468129 -0.09554,0.300802 -0.230545,-0.279347 -0.577317,-0.350842 -0.890977,-0.481416 -0.357504,-0.15173 -0.587654,0.118993 -0.236929,0.332668 l 0.226431,0.152132 c -0.09427,0.103288 -0.225935,0.270931 -0.02816,0.325364 0.581736,0.223401 0.479012,0.368372 0.558604,0.534194 -0.679062,-0.490853 -1.345805,-1.057218 -2.110938,-1.022433 0.490208,-0.212636 0.946316,-0.581004 0.973948,-0.946385 0.09218,-0.446775 0.302459,-1.059705 1.320874,-1.161912 0.414171,-0.02563 0.242312,-0.595553 0.06009,-0.908974 0.05323,-0.585049 -0.224165,-1.676329 -0.788686,-2.748696 l -0.09898,0.55873 C 36.664772,14.823621 36.345651,14.141217 35.50909,13.267945 l 0.130985,0.887745 c -0.397825,-0.605954 -0.805226,-1.406397 -1.188239,-1.70528 0.516479,0.875638 1.030711,1.750693 1.043097,2.430555 -0.553336,-0.569341 -0.942214,-1.585522 -1.371843,-2.490777 -0.277914,-0.526529 -0.307046,-0.241281 -0.357137,-0.02466 -0.695715,-1.155811 -1.567704,-1.456539 -2.425528,-1.825412 0.207687,0.208959 0.426349,0.418262 0.487917,0.622625 -0.428977,-0.285096 -0.843822,-0.443225 -1.251644,-0.537803 0.470301,0.25616 0.871076,0.701428 1.209375,1.316031 -0.484105,-0.285632 -0.849264,-0.759433 -1.531,-0.732568 -0.162919,0.257072 -0.340003,0.541232 -0.57305,0.933915 -0.03503,-0.260281 -0.0392,-0.539035 0.183975,-0.955093 -0.428811,0.0943 -0.638885,0.568072 -0.890891,0.969209 0.05173,-0.157349 0.08506,-0.308079 -0.105978,-0.375188 -0.243654,0.356788 -0.654828,0.822176 -0.569193,0.965829 -0.277526,-0.142925 -0.469265,0.0881 -0.622274,0.488065 -0.05242,0.118069 0.0016,0.329182 0.180343,0.173435 0.633858,-0.423433 1.205832,-0.493024 1.77507,-0.551734 l 0.165796,0.626091 0.456032,-0.24381 c -0.401458,1.047208 -0.832395,2.151871 -1.304514,3.335757 l -0.155598,-0.530748 c -0.285273,0.186427 -0.285499,0.553509 -0.35364,0.877203 l -0.109526,-1.277055 c -0.178848,0.564399 -0.3554,1.129081 -0.198114,1.69813 0.03807,0.213232 -0.230534,0.294888 -0.286517,0.03182 -0.189919,-0.773281 -0.103891,-1.52273 -0.09171,-2.278364 -0.184672,0.360815 -0.36604,0.722046 -0.297258,1.096731 -0.06214,-0.228627 -0.204974,-0.396349 -0.08488,-0.764101 0.160608,-0.554997 -0.02839,-1.200071 -0.303814,-1.577724 -0.284826,-0.43257 -0.666304,-1.935014 -0.0071,-3.834826 C 27.627729,8.7163138 27.827442,7.9826409 30.103,4.0379893 L 29.58307,4.2888957 C 29.63574,4.0169767 29.954542,3.6099351 30.329135,3.17466 Z m 0.116661,11.7173144 c 0.104766,-0.01627 0.18884,0.117154 0.126683,0.251868 -0.464672,1.136598 -1.411169,2.426537 -1.205954,3.349966 l 0.238594,0.04363 c 0.192069,-1.078133 0.758575,-1.830181 1.339337,-2.569688 0.152113,-0.15747 0.264729,-0.09998 0.150348,0.08864 -0.265013,0.493317 -0.650327,0.999992 -0.736434,1.473443 -0.02872,0.1618 0.111329,0.303534 0.218126,0.06919 0.21716,-0.463351 0.648636,-0.983733 1.051928,-1.368019 0.471312,-0.479173 0.904916,-0.956481 1.115978,-1.422159 0.106892,-0.195066 0.290199,-0.14125 0.209181,0.09392 -0.146657,0.468792 -0.491387,0.943128 -1.010908,1.422156 -0.450297,0.422276 -0.773626,0.95167 -0.86586,1.464143 -0.04578,0.334663 -0.282036,0.752184 -0.554252,0.903681 -0.263241,0.122013 -0.380078,0.04683 -0.291169,-0.306664 0.05196,-0.170482 7.19e-4,-0.297804 -0.198903,-0.0014 -0.202252,0.345337 -0.263963,0.970268 -0.700644,0.849552 l 0.04547,0.298917 c 0.04108,0.193037 -0.246694,0.317756 -0.381136,0.04233 -0.05525,-0.111777 -0.123457,-0.337952 -0.128458,0.002 -1.61e-4,0.191911 -0.209504,0.326072 -0.288585,0.03202 -0.334698,-1.565579 0.09881,-1.762533 0.324433,-2.129339 -0.04879,0.264773 -0.198556,0.518478 -0.121627,0.796933 0.04068,0.178772 0.208064,0.119155 0.219406,-0.02434 0.08367,-1.088262 0.826176,-2.155723 1.300814,-3.231718 0.04444,-0.08349 0.09639,-0.122182 0.143931,-0.129766 z m 4.159897,0.888305 c 0.01065,-0.0014 0.02228,-0.0017 0.03491,-8.39e-4 0.890195,0.06785 0.970618,0.477099 1.078888,0.874432 0.04826,0.176967 -0.127554,0.190314 -0.181858,0.0439 -0.161395,-0.508806 -0.446853,-0.721688 -0.854618,-0.64179 -0.201465,0.04086 -0.238941,-0.252394 -0.0768,-0.275425 z m -0.841978,0.102703 0.32346,-0.03593 c 0.178083,-0.0045 0.21017,0.203472 0.03037,0.218843 l -0.339263,0.04992 c -0.18334,0.01884 -0.219479,-0.207572 -0.01352,-0.232398 z m -1.368179,0.520314 c -0.294582,0.40215 -0.642049,0.789689 -0.78643,1.233421 -0.05478,0.208899 -0.306814,0.111268 -0.223257,-0.115627 0.282427,-0.648381 0.661125,-0.806415 1.009693,-1.117764 z m 0.293099,1.487859 c 0.0042,-4.86e-4 0.0075,-0.0012 0.0121,-0.0017 0.562042,-0.05784 0.661499,0.690479 0.09682,0.760981 -0.512411,0.04466 -0.620625,-0.695419 -0.108565,-0.759685 z m 4.31937,-0.02035 c 0.130218,-0.01534 0.28875,0.01248 0.482292,0.09498 0.239713,0.120996 0.172487,0.410165 -0.0091,0.340312 -0.358639,-0.142758 -0.620302,0.09046 -0.871122,0.365671 -0.10438,0.129205 -0.202191,0.119847 -0.152577,-0.111833 0.09034,-0.373851 0.241889,-0.652859 0.55054,-0.689143 z m -11.3091,2.370993 c 0.509963,-0.05053 0.553094,0.634264 0.168219,0.692201 -0.493758,0.04872 -0.579494,-0.632788 -0.168219,-0.692201 z m 10.33155,-0.953122 c 0.07682,-0.01325 0.132073,0.08058 0.08651,0.315089 -0.133602,0.560079 -0.768249,0.93547 -1.81167,1.160113 -0.260126,0.05504 -0.571484,-0.04985 -0.02448,-0.219477 0.779634,-0.225474 1.33519,-0.551601 1.557676,-1.026795 0.04895,-0.135442 0.127655,-0.218333 0.191302,-0.228775 z m -0.818186,0.109398 c 0.119098,-0.01786 0.199878,0.07581 0.108378,0.188615 -0.281245,0.381465 -0.709109,0.689649 -1.548448,0.79189 -0.3038,0.02605 -0.271002,-0.304942 -0.0492,-0.333553 0.520089,-0.07598 0.969748,-0.261031 1.339341,-0.569808 0.05025,-0.0463 0.102984,-0.07026 0.149482,-0.07707 z m -4.025027,1.379604 c 0.0427,-0.0035 0.09647,0.0049 0.153393,0.02813 0.445526,0.160097 0.994654,0.294411 1.760956,0.3749 0.272323,0.02258 0.202768,0.296366 -0.01989,0.266937 -0.735403,-0.08509 -1.405404,-0.207298 -1.85255,-0.455779 -0.184551,-0.117629 -0.150495,-0.205115 -0.04149,-0.214327 z m -1.29935,0.239862 c 0.04121,-0.0033 0.103352,0.01 0.183707,0.04514 0.941936,0.417275 2.0185,0.58794 3.216757,0.535751 1.09052,-0.05083 2.102085,0.485127 3.060918,1.140328 0.862106,0.672758 1.274162,1.795136 1.538674,2.839096 0.08378,0.244174 -0.162481,0.324526 -0.267864,0.04614 -0.269175,-0.877493 -0.50524,-1.976898 -1.43148,-2.545243 -0.963208,-0.52252 -1.993009,-0.966681 -3.016263,-1.037463 -1.175494,-0.120777 -2.343451,-0.252704 -3.22308,-0.816263 -0.14111,-0.112356 -0.151963,-0.200245 -0.06178,-0.207495 z m -0.349112,0.265778 2.83e-4,-2.6e-5 c 0.04076,-0.0056 0.09103,5.99e-4 0.145881,0.02303 l 1.400842,0.563446 c 0.417875,0.20171 0.258386,0.386494 -0.07909,0.236987 l -1.445885,-0.599777 c -0.181033,-0.0874 -0.144374,-0.206978 -0.02169,-0.223703 z m 4.191999,-0.283203 c 0.01716,-0.0017 0.03482,-0.003 0.05306,-0.0028 3.761654,-0.109718 4.825859,1.851748 5.0494,4.458629 0.04622,0.253336 -0.177432,0.447553 -0.277648,0.03082 -0.59325,-2.866315 -2.177756,-4.285351 -4.782599,-4.215133 -0.43575,-0.0072 -0.29938,-0.245127 -0.04239,-0.271714 z m -4.833785,0.625226 c 0.01627,-0.0034 0.0356,-0.0025 0.05781,0.0012 0.719313,0.148212 1.468743,0.430769 2.218101,0.712547 0.20921,0.09208 0.171385,0.287876 -0.08196,0.207945 l -1.508944,-0.534064 c -0.574435,-0.179236 -0.690039,0.18978 -0.557901,0.342566 1.010502,1.206849 1.087792,2.113218 1.346981,3.078092 0.03991,0.180687 -0.18945,0.241279 -0.230928,0.02562 -0.06035,-0.264169 -0.126681,-0.159026 -0.09482,-0.01289 0.03289,0.152016 -0.09077,0.16558 -0.164308,-0.0052 -0.185166,-0.482951 -0.141919,-0.684583 -0.179436,-0.985694 -0.04239,-0.326143 -0.0732,-0.74129 -0.442811,-1.143609 -0.401594,-0.441507 -0.420999,-0.76731 -0.452392,-1.100625 -0.01399,-0.208883 -0.06783,-0.556233 0.09052,-0.586536 z m -0.262862,0.587101 c 0.01537,0.55883 0.255743,0.93655 -0.0077,1.719813 -0.211685,0.537994 -0.436031,1.113297 -0.33475,1.615994 0.07102,0.347821 -0.39711,0.467289 -0.518161,0.06977 -0.09538,-0.531784 -0.04445,-1.019214 0.310444,-1.414451 0.260139,-0.269259 0.503179,-1.031396 0.550256,-1.990597 z m 2.335141,0.930746 c 0.04361,-0.0076 0.09719,0.03409 0.152782,0.08517 0.202877,0.182759 0.329909,0.314359 0.448027,0.462931 0.18606,0.285764 0.194062,0.548229 0.256066,0.814869 -0.09727,-0.08307 -0.190677,-0.170807 -0.234054,-0.321102 -0.08602,-0.227361 -0.13864,-0.0607 -0.143317,0.04885 -0.04424,0.792823 -0.242309,0.363239 -0.413714,0.145028 -0.346884,-0.44364 -0.440133,-0.194454 -0.460751,0.01825 -0.02441,0.574248 -0.137711,0.34845 -0.24684,0.159723 -0.130517,-0.243185 -0.222088,-0.558992 -0.235895,-0.784147 -0.03624,-0.31643 0.07624,-0.15196 0.154145,-0.09982 0.110131,0.05944 0.270094,0.106746 0.237832,-0.09259 -0.02673,-0.21351 0.04906,-0.190676 0.134158,-0.130824 0.205074,0.132272 0.245217,0.0091 0.264932,-0.14535 0.01747,-0.109884 0.04806,-0.154475 0.08652,-0.161213 z m 2.383815,-0.258638 c 0.258277,-0.0333 1.114671,0.429116 1.038819,0.548548 -0.113561,0.157615 -1.237639,-0.292283 -1.098052,-0.521312 0.01208,-0.01517 0.03254,-0.02382 0.05932,-0.02723 z m -5.908117,1.144615 c -0.233945,0.395038 -0.401273,0.799053 -0.259237,1.244958 0.02932,-0.278323 0.09348,-0.528747 0.325928,-0.644426 -0.197932,0.755087 -0.121472,0.917849 -0.0129,1.358031 -0.848954,-0.744934 -0.749336,-1.384704 -0.05379,-1.958563 z m 1.225168,0.61232 c 0.150054,0.112419 0.377399,0.447252 0.392488,0.693093 -0.0014,0.172495 -0.220077,0.238724 -0.31301,0.02251 -0.09856,-0.310856 -0.07388,-0.498414 -0.07959,-0.716175 z m 0.552861,0.242545 c 0.07783,0.15082 0.130658,0.305361 0.259168,0.333885 0.252812,0.07421 0.194862,0.314659 0.223261,0.431296 0.03076,0.163984 -0.185837,0.220173 -0.312981,0.02251 -0.180457,-0.362058 -0.192254,-0.588731 -0.16964,-0.788243 z m -2.505522,0.383633 c 0.06873,0.358402 0.192163,0.519347 0.302716,0.726447 -0.316594,-0.20126 -0.382385,-0.450023 -0.302716,-0.726447 z m 7.431291,0.374619 c 0.07392,-0.0098 0.162952,0.01836 0.254688,0.10494 0.345788,0.350992 0.406873,0.838688 0.463276,1.328507 0.0049,0.249924 -0.215754,0.326431 -0.469542,0.192272 -0.242661,-0.155723 -0.377101,-0.652891 -0.435085,-1.39004 0.0034,-0.122268 0.07871,-0.220619 0.186631,-0.235758 z m -4.872666,0.574106 c 0.09813,-0.01008 0.203421,0.07173 0.191491,0.236891 -0.02715,0.232854 -0.01241,0.703213 0.187318,0.686539 0.416188,-0.02787 0.551028,0.913627 0.795204,1.478803 l -0.373274,0.05904 c -0.460658,-0.643661 -0.980853,-1.239794 -0.95883,-2.26741 0.0096,-0.122656 0.08182,-0.186164 0.158055,-0.193942 z m -1.049863,0.133601 c 0.05112,-0.0052 0.11638,0.01711 0.186675,0.07988 0.39312,0.390912 0.753325,1.025882 1.104005,1.731109 0.09211,0.168321 -0.05507,0.39526 -0.259078,0.192583 -0.441111,-0.506188 -0.843206,-1.069698 -1.124513,-1.810574 -0.03691,-0.09963 0.0078,-0.184391 0.09299,-0.193021 z m 6.7268,-0.694435 c 0.02113,-0.004 0.05576,0.01325 0.112485,0.05305 0.207943,0.131611 0.295775,0.384709 0.355589,0.568423 0.08893,0.189851 -0.007,0.201125 -0.11569,0.118219 -0.179192,-0.13546 -0.338758,-0.300418 -0.386059,-0.635423 0.002,-0.06408 0.0081,-0.09967 0.03352,-0.104322 z m -5.217616,0.640595 c 0.07731,-0.0094 0.178229,0.0433 0.200443,0.163412 l 0.06101,0.338195 c 0.0232,0.196114 -0.258399,0.166218 -0.296587,-0.03716 l -0.05431,-0.333267 c -0.01634,-0.07936 0.02939,-0.123928 0.08962,-0.131249 z m 3.123277,-0.117496 c 0.07579,-0.013 0.162924,0.05235 0.204931,0.18507 0.06397,0.170313 0.07922,0.311011 0.119967,0.495101 0.043,0.174927 0.236634,0.162406 0.194921,0.01936 -0.06415,-0.2303 -0.124964,-0.321168 -0.09521,-0.433798 0.03705,-0.167437 0.279985,-0.264364 0.380162,-0.04833 0.23854,0.574394 0.300366,0.947838 0.216955,1.110322 -0.09051,0.160889 -0.273377,0.290271 -0.657523,0.289229 -0.186833,-0.01432 -0.357507,-0.05077 -0.397688,-0.265771 -0.06686,-0.341684 -0.138329,-0.677728 -0.0989,-1.15247 0.01497,-0.123849 0.06982,-0.188441 0.132624,-0.199194 z m -1.388634,0.29311 c 0.113904,-0.01223 0.230611,0.04453 0.247737,0.193195 0.03211,0.293736 0.06081,0.588263 0.212032,0.853524 0.07305,0.130767 0.179594,0.0903 0.172606,-0.02529 l -0.0761,-0.740229 c -0.01824,-0.149874 0.210079,-0.221364 0.341765,0.02637 0.135265,0.219699 0.261033,0.613772 0.381022,1.115441 0.04457,0.213806 -0.221421,0.28619 -0.566987,0.314521 -0.269732,0.01618 -0.53215,0.0042 -0.704372,-0.342823 -0.158672,-0.320455 -0.206245,-0.748469 -0.238679,-1.148902 -0.0082,-0.1421 0.110208,-0.233393 0.231544,-0.246423 z m -1.05868,0.396399 c 0.08479,-0.01397 0.205135,0.0371 0.367413,0.181999 0.498953,0.462082 0.603827,0.950517 0.761383,1.435554 l -0.805149,0.118821 c -0.440217,-0.442818 -0.498738,-0.954149 -0.48565,-1.478149 0.01537,-0.142136 0.06594,-0.242066 0.161998,-0.258171 z m -5.57721,0.706875 c 0.203571,-0.03027 0.650351,0.861891 0.464023,1.013988 -0.187317,0.102441 -0.692375,-0.851942 -0.487655,-1.005669 0.0069,-0.0036 0.01525,-0.008 0.02351,-0.0088 z m 10.589245,-0.368415 c 0.111493,-0.03932 0.246602,0.159523 0.134676,0.278219 -0.137617,0.13411 -0.07397,0.263007 0.04338,0.390183 0.09567,0.238554 -0.03803,0.182586 -0.133445,0.175928 -0.128958,-0.29186 -0.221807,-0.575809 -0.09013,-0.811732 0.01401,-0.0169 0.02961,-0.02697 0.04528,-0.03254 z m -0.74434,0.345598 c 0.117359,-0.016 0.264305,0.05316 0.451183,0.286501 -0.152638,0.01846 -0.345662,0.04142 -0.26684,0.351861 l 0.15208,0.716513 c 0.06247,0.2103 -0.06412,0.259735 -0.199633,0.159074 -0.121872,-0.127207 -0.523322,-1.068338 -0.462595,-1.189635 0.07361,-0.140332 0.1751,-0.303277 0.325885,-0.32429 z m -0.959599,0.450376 c 0.100129,-0.01151 0.207868,-0.01391 0.317332,-0.0024 0.397657,0.03854 0.489797,0.946009 0.534056,1.399407 0.03599,0.314119 -0.180819,0.22885 -0.20613,0.03051 l -0.08457,-0.618902 c -0.06816,-0.517906 -0.348404,-0.401152 -0.299751,-0.160165 0.08312,0.397262 0.165963,0.796412 0.151773,1.078904 6.59e-4,0.16412 -0.07789,0.261755 -0.28,0.08773 -0.291242,-0.33451 -0.556278,-0.726719 -0.642809,-1.508009 -0.0195,-0.148226 0.209599,-0.272699 0.510039,-0.307312 z m -0.989027,0.344321 c 0.307662,-0.04183 0.30373,0.803544 0.442768,1.23196 0.04315,0.137713 -0.205575,0.278962 -0.332314,0.05316 -0.102525,-0.200777 -0.0936,-0.414116 -0.09346,-0.626292 0.003,-0.117623 -0.131615,-0.09595 -0.214956,0.02385 -0.09895,0.148807 -0.07282,0.368853 0.03555,0.680935 0.08407,0.163455 0.22938,0.14626 0.20507,0.323715 -0.01174,0.17917 -0.151138,0.329727 -0.306939,0.138834 -0.175203,-0.248419 -0.407983,-0.579039 -0.570212,-1.145342 -0.0639,-0.216156 -0.093,-0.411646 0.09126,-0.485402 0.202357,-0.113589 0.469003,-0.158685 0.743364,-0.195425 z m -2.489405,0.547777 0.307397,6e-6 c 0.131045,0.721074 0.01611,1.15706 0.150014,1.350716 l -0.248658,0.324099 C 30.352486,30.322318 30.29819,29.5877 30.240221,28.895233 Z m 1.321338,-0.101272 c 0.114397,0.650799 0.19847,1.260705 -0.07376,1.386946 -0.241808,0.117695 -0.397442,0.01858 -0.396353,-0.183869 -0.0042,-0.182406 -0.07272,-0.470454 -0.213487,-0.69412 -0.126365,-0.143647 -0.05829,-0.276679 -0.06878,-0.414026 z m 6.24987,4.627458 c 0.05907,-0.0073 0.123399,0.03362 0.120641,0.123484 -0.0022,0.214334 -0.0083,0.426355 0.0525,0.677854 0.02855,0.104042 0.09701,0.21277 0.217538,0.112439 0.103914,-0.110617 0.235856,-0.05154 0.190085,0.07015 -0.02571,0.162388 -0.09676,0.329781 -0.02614,0.481453 0.07076,0.125204 -0.07333,0.180506 -0.193802,-0.0012 -0.269441,-0.489376 -0.347887,-0.246142 -0.4213,0.0012 -0.04285,0.228862 -0.124068,0.461979 -0.02759,0.675372 0.05789,0.122514 -0.298078,0.211505 -0.328623,0.01367 -0.0575,-0.365209 -0.06314,-0.742423 0.143644,-1.167129 0.127587,-0.220381 0.205807,-0.515652 0.179959,-0.84023 -0.01207,-0.08787 0.03402,-0.136844 0.08749,-0.146302 0.0012,-2.1e-4 0.0029,-5.87e-4 0.0059,-0.0012 z m -3.858402,2.243623 c 0.104721,1.334407 0.02344,2.633297 -1.00048,3.752993 -0.189122,0.205547 -0.328624,0.06915 -0.245979,-0.03716 0.440639,-0.613142 0.485741,-1.238721 0.647012,-1.860602 l -0.02287,1.098311 c 0.38656,-1.067276 0.464955,-1.992213 0.6223,-2.953626 z m -2.052608,1.823268 c -0.164383,0.627766 -0.50335,1.169052 -1.301167,1.482243 0.544312,-0.463406 0.978431,-0.957511 1.301167,-1.482243 z M 21.76169,38.837467 c 0.0012,-1.37e-4 0.003,-3.89e-4 0.0064,-0.0012 0.05299,-0.0042 0.119128,0.03728 0.197515,0.150569 1.100621,1.681875 0.0047,3.460875 -0.604877,5.218064 0.181674,-1.645836 0.437617,-3.288064 0.270021,-4.952983 -0.02993,-0.173435 0.0193,-0.399336 0.132019,-0.415063 z m 5.876423,5.164561 c 0.0042,-4.67e-4 0.0092,-0.0012 0.01521,-0.0018 0.409179,-0.04477 1.225299,0.04369 0.925691,0.125684 -0.590169,0.171378 -0.970959,0.174135 -1.127648,-0.0036 -0.05407,-0.06457 0.03593,-0.102285 0.187164,-0.120482 z m -1.086086,0.680635 c 0.465083,-0.05196 1.30153,0.0086 0.927051,0.129718 -0.723573,0.208975 -1.165674,0.226249 -1.211043,-0.02661 -0.0046,-0.05059 0.115822,-0.08438 0.284012,-0.103035 z M 23.394477,3.8678639 c 0.766715,0.5152106 1.663697,0.8154963 1.94517,2.1313969 0.0748,0.2669641 -0.08226,0.4545467 -0.335023,0.4702311 0.04178,0.5803187 0.14839,1.1534308 -0.212493,1.7784792 -0.08697,0.1702103 -0.174098,0.1681581 -0.20252,0.022488 -0.0854,-0.3165941 -0.351006,-0.5900372 -0.597548,-0.868054 0.184843,0.016758 0.310196,-0.0015 0.595055,0.2301916 -0.134662,-0.372127 0.02197,-0.4286746 0.225014,-0.4352237 -0.207288,-0.9856383 -1.399116,-1.114054 -2.26521,-1.5260834 l 0.867563,0.017609 C 23.286658,5.5245117 23.258316,5.3831488 23.999541,5.4187964 23.233064,4.5550553 22.232072,4.658082 21.314309,4.4179675 c 1.089397,0.00876 2.23442,-0.2639848 3.102773,0.8632934 -0.02276,-0.5064553 -0.533667,-0.9587071 -1.022603,-1.4133934 z m 2.206754,2.8627916 c -0.152608,0.2439659 0.0694,0.1962695 0.261664,0.035404 0.509727,-0.4577856 0.326498,-1.0180704 0.01591,-1.5971952 -0.08663,-0.2207872 -0.318855,-0.071892 -0.267013,0.061664 0.121132,0.5265731 0.254153,1.0558379 -0.01061,1.4999164 z m -2.151496,3.252539 c 0.588468,-0.4276916 0.778324,0.4952085 0.804399,0.8614675 -0.379298,0.01564 -1.167139,-0.503905 -0.804399,-0.8614675 z m 0.182121,1.0595015 c -0.293394,-0.491338 -0.5975,-0.959283 -1.094355,-1.006525 -0.268962,-0.0148 -0.334576,0.409348 0.0513,0.461643 0.33181,0.03861 0.688487,0.301092 1.043072,0.544878 z m 1.803275,1.153414 c 0.114395,0.286062 0.348226,0.253069 0.251028,-0.06022 -0.379856,-1.179131 -0.09272,-2.3876384 0.148459,-3.5941184 -0.520776,1.075164 -1.017592,2.1591724 -0.399514,3.6542264 z m 2.500374,60.656085 c 0.716928,-1.12898 1.644054,-1.93301 1.96011,-3.68188 0.172446,-1.082722 0.846984,-2.312345 1.75012,-3.521805 0.848637,-1.09942 1.681097,-2.223833 2.385156,-3.546787 0.400089,-0.847015 0.946123,-1.548064 1.890142,-1.850826 -1.096988,1.878271 -2.278649,3.75747 -2.200121,5.622945 0.04596,1.37071 -2.062092,3.447557 -2.8752,4.056995 -0.539604,0.598357 -0.646427,1.525984 -1.200081,1.910977 z M 33.080671,44.1115 c 2.538302,-2.439467 4.210348,-4.890873 5.790428,-7.343574 -1.135669,2.489327 -2.607584,5.0693 -5.265358,7.968972 -3.937855,4.103308 -5.650401,8.978778 -6.965455,13.992205 -0.773655,2.58225 -1.829861,4.414047 -2.885178,6.42834 1.386274,-2.888854 2.333912,-5.728981 2.880153,-8.524522 2.780701,-12.363936 6.348665,-13.517957 9.715657,-17.533927 -1.521709,1.977613 -2.757462,3.752004 -3.270247,5.012506 z M 43.0451,27.279251 c 0.14237,-0.285172 0.261647,-0.0054 0.180075,0.185109 -0.174178,0.311831 -0.251674,0.673683 -0.232506,1.085593 2.75e-4,0.256498 0.233447,0.37306 0.398796,0.206405 0.198199,-0.143599 0.397603,-0.329751 0.343752,-0.596565 -0.03332,-0.203359 0.05376,-0.440924 0.196269,-0.694108 0.141177,-0.250715 0.138456,-0.610709 0.127494,-1.005555 -0.02325,-0.741688 0.289565,-1.702439 0.600035,-2.59641 0.140541,-0.284827 -0.06986,-0.44469 -0.171295,-0.106391 l -0.218745,0.594072 c -0.117011,0.238453 -0.284147,0.181326 -0.187531,-0.04763 0.295426,-0.671308 0.269378,-1.839695 0.164977,-3.129236 -0.619555,0.62336 -0.785096,1.496445 -0.531271,2.60016 l -0.301269,0.05629 c 0.119558,1.83883 -0.38473,2.99321 -1.090052,3.927095 -0.114548,0.143353 -0.01582,0.366863 0.205026,0.20514 0.264745,-0.238308 0.431521,-0.46575 0.516287,-0.684081 z m -1.547621,-0.808117 0.121309,0.784203 c 1.034552,-0.997974 1.377207,-2.404255 1.242575,-4.092196 -0.254317,1.318569 -0.443035,2.707861 -1.363842,3.307981 z M 40.397364,25.07775 c 0.481339,-0.320596 0.708973,-1.08373 0.438761,-2.715244 -0.132816,0.162224 -0.265242,0.297245 -0.401265,0.694097 -0.05808,0.133392 -0.07848,0.242688 -0.02871,0.356447 0.294941,0.715776 0.09467,1.16407 -0.0088,1.664692 z m 0.932519,-6.781233 c -0.07077,-0.225065 0.17389,-0.280114 0.272519,-0.0075 1.186565,3.438481 0.770478,5.10709 0.185085,6.588734 0.210457,-1.368119 0.636278,-2.677705 -0.290074,-4.354984 -0.193494,-0.358348 0.05598,-0.902642 0.02122,-1.244443 -0.04189,-0.280494 -0.07018,-0.534967 -0.188831,-0.981815 z m 0.791305,-0.05374 c -0.304506,-0.289748 -0.223138,-0.540277 -0.05628,-0.814209 0.272129,-0.5768 0.35804,-0.179577 0.543791,0.178907 0.897912,1.907101 0.853476,3.557965 0.571338,5.144197 0.01379,-0.654975 -0.02325,-1.312319 -0.240016,-1.853564 -0.188904,0.02249 -0.319706,-0.02758 -0.322523,-0.237672 -0.0232,-0.7534 -0.117251,-1.986399 -0.496275,-2.417673 z m -1.455117,0.02486 c -0.01642,-0.272121 0.224505,-0.238487 0.227526,-0.0025 0.113313,0.727856 0.114015,1.389149 -0.03249,1.963601 -0.01714,0.256999 -0.143358,0.350117 -0.267532,0.05247 -0.08307,-0.288159 -0.235012,-0.534972 -0.02002,-1.00057 0.137437,-0.328403 0.101692,-0.671888 0.09249,-1.01306 z M 36.45316,10.485321 c 0.93079,1.05649 1.17253,2.143314 1.202619,3.239447 0.0025,0.364799 0.795955,1.081958 0.882587,1.588487 0.258444,1.004554 0.601069,1.999589 1.217611,2.964288 0.414359,0.9036 0.125938,2.796865 0.425099,2.801618 0.219795,-1.817271 0.592813,-3.65156 -0.635166,-5.308034 l 0.25003,-0.0049 c -0.120775,-0.46134 -0.490723,-0.991205 -0.922608,-1.538452 0.548108,0.134231 1.050182,1.112723 1.560149,1.946244 C 39.751855,14.6226 39.394329,12.485385 37.915744,12.374127 37.596748,11.602955 37.26173,10.845196 36.453143,10.485409 Z m -3.884074,-0.0016 c 2.612011,-0.6675031 3.791948,0.561529 4.564146,2.330518 -1.058251,-1.382842 -3.146446,-1.703673 -4.564146,-2.330516 z m 1.653869,-1.4143833 c 4.550085,-0.9848586 6.926859,1.3848423 7.745692,6.1592403 0.08742,0.248201 -0.214298,0.39187 -0.295024,0.01 -0.311807,-1.358147 -0.470833,-2.80032 -1.575165,-3.722262 0.163107,0.492862 0.222303,1.002115 -0.119997,0.560303 C 37.968956,9.9058074 37.632651,10.500484 37.445735,10.192747 36.945508,9.1729784 36.419846,9.1789372 35.883101,9.4546687 35.565155,9.6528891 33.908122,9.1519868 34.222949,9.0692949 Z M 47.976567,71.285641 c -0.22571,0.117928 -0.386084,-1.161723 -0.671825,-1.698082 -0.239351,-0.417688 -0.395805,-0.905068 -0.468572,-1.462812 -0.06818,-0.471845 -0.373246,-1.229623 -0.871601,-1.901496 -0.286723,-0.456016 -0.522748,-1.255916 -0.385353,-1.729901 0.146955,-0.482633 -0.08643,-1.082955 -0.390255,-1.632728 -0.337639,-0.51959 -0.676961,-1.226213 -0.631141,-2.057135 0.03932,-2.10995 -2.217593,-6.982709 -2.22765,-7.874783 -0.09104,-2.358267 0.415422,-1.465725 1.028924,-0.742782 0.955216,1.026712 1.0939,2.069691 1.119108,3.114912 0.172853,1.556717 0.889132,2.425596 1.366641,3.458074 0.974137,1.721499 1.216041,3.803896 1.297721,5.592959 0.02253,0.402596 0.03308,0.508238 -0.189185,0.32721 -0.302595,-0.219231 -0.572003,-0.275749 -0.807926,-0.168118 -0.318627,0.167627 -0.324584,0.202461 0.01774,0.304219 1.359928,0.424592 1.541429,2.035084 1.47094,3.091956 -0.02122,0.469622 -0.01462,0.972573 0.171528,1.68917 0.219033,0.723069 0.364142,1.562334 0.171522,1.689181 z M 41.314725,33.348514 c -0.425383,1.95802 -0.79571,3.982826 0.431443,7.945322 0.814554,2.226745 0.775021,7.936332 -0.802561,8.727008 0.200741,-0.736675 0.280352,-1.628743 -0.311129,-3.381911 -2.395564,-7.482827 -0.873586,-10.406347 0.682277,-13.290425 z m 5.857045,3.090009 c 0.147902,0.271991 0.345964,0.342798 0.52255,-0.01241 0.685802,-1.148992 1.39852,-2.285374 0.805007,-4.032201 -0.269366,-0.688133 -1.066144,-0.808105 -1.747636,-0.35288 -0.464012,0.33122 -0.917061,0.792744 -0.402518,1.298207 0.484216,0.483347 0.251104,0.589857 0.207597,0.842975 -0.23419,0.664914 0.235815,1.555346 0.615036,2.256342 z m -2.640285,-8.389999 1.232589,-0.59271 c -0.236228,-0.813979 -0.185349,-1.897658 0.01744,-3.124248 0.197271,-0.892977 0.0157,-1.806654 -0.142519,-2.719056 -0.02379,2.192067 -0.344364,4.343994 -1.107535,6.436014 z m 2.085142,-0.915305 1.002589,0.0024 c 0.678855,-2.862362 0.128812,-5.483544 -0.600131,-8.069612 0.526171,3.194921 0.655391,6.085756 -0.402464,8.067005 z m 1.657638,-0.04735 1.252601,0.407853 -0.260004,-1.726002 -0.2775,0.372688 c 0.150252,-0.732949 0.185853,-1.485326 -0.09503,-2.291305 0.03009,1.052633 -0.05532,2.118075 -0.620022,3.236766 z m -2.177773,-10.78879 c 0.634234,1.939651 0.465852,3.648354 0.04004,5.282981 -0.0042,-0.797232 0.303374,-1.629038 -0.127614,-2.378853 -0.34154,0.767177 -0.798396,1.171744 -1.227591,1.663313 0.72621,-1.234463 1.394534,-2.526845 1.315066,-4.567433 z M 41.406048,8.1120371 c 1.661929,1.1558312 4.179821,3.3828829 4.582945,7.6272479 l -0.920094,-1.926173 c 1.055217,4.02308 -0.165127,5.190784 -1.072527,6.751199 1.330571,-3.111433 0.813481,-6.129206 -0.872577,-9.087719 l 0.650068,0.520362 C 43.725435,10.786017 42.805395,9.4762171 41.406126,8.1120305 Z M 30.26507,10.217335 C 31.0236,9.148598 32.107862,8.4057623 33.639111,8.1101916 L 33.606326,7.8157094 C 35.401896,7.6158276 36.981995,7.005253 40.136125,9.3949877 38.456772,8.7790891 36.461393,7.6557774 35.608494,8.3668787 34.550502,8.476726 33.107024,8.4994732 33.745117,8.9928399 32.468277,9.2836942 31.405746,9.7643822 30.58146,10.456175 30.735351,10.09805 31.037894,9.7528674 31.407938,9.4135718 30.921869,9.6119893 30.623361,9.9344582 30.264983,10.217357 Z M 29.602602,10.1295 c 0.08477,0.146406 1.361226,-0.8256317 1.932644,-1.6732538 0.101798,-0.5803757 0.774711,-0.9771851 1.512611,-1.3531155 -0.908831,0.096039 -1.566372,0.5475702 -1.940158,1.4006051 C 30.339385,9.0372889 29.505404,9.9665199 29.602602,10.1295 Z M 40.448231,6.6931937 c 1.609408,0.1175567 3.1352,1.5932042 4.68852,2.621774 C 43.43297,7.2541504 41.369374,5.8318015 38.37975,6.0526995 c 0.92713,0.2204821 1.845402,0.7238346 2.763279,1.2401737 z m 4.366753,0.8848148 c 0.85127,0.2279345 1.744099,0.7542799 2.805688,2.4924595 0.327054,0.500864 0.807464,1.516499 0.192686,1.590151 -0.477593,0.06379 -0.458654,-2.1228443 -2.998392,-4.0826122 z m 0.831384,-1.8969307 c -0.138924,0.074118 1.484137,1.7757959 1.640148,1.6410845 C 47.503115,7.105368 46.07669,5.4767848 45.646368,5.6810778 Z M 34.86549,4.8045094 C 35.772466,4.2144393 36.848006,3.7763825 38.293255,3.6717142 L 38.075714,3.354018 c 1.870632,-0.2856142 3.34385,0.5831884 4.810402,1.4713075 C 41.169077,4.3191885 39.887021,4.1612445 39.103312,4.40221 41.188945,4.3309789 42.959165,5.4787795 44.711284,6.6965608 41.281527,5.3845704 37.925065,4.4104349 34.865455,4.8045178 Z M 28.154997,11.247465 C 28.439536,9.7843585 28.728608,8.3212214 31.265218,6.8452976 L 30.850176,6.8002386 C 32.807668,4.1885223 35.021546,3.8851638 37.210649,3.3589329 35.923157,3.0458235 34.441596,3.2597129 32.5953,4.4641046 32.868961,3.8283339 33.898263,3.2091886 35.075479,2.5932991 33.649313,2.9411959 32.088738,3.6405476 29.825087,6.1847979 L 30.890134,5.9296236 C 28.8328,7.7409418 27.852518,9.5158338 28.154967,11.24734 Z"
       inkscape:label="Killers" />
  </g>
</svg>
